M48
;Layer_Color=9474304
;FILE_FORMAT=2:4
INCH,LZ
;TYPE=PLATED
T1F00S00C0.0394
T2F00S00C0.0402
T3F00S00C0.0433
%
T01
X010669Y015235
X011669
X034669Y015225
X035669
Y016225
X034669
Y017225
Y018225
Y019225
Y020225
X035669
Y021225
X034669
Y022225
X035669
Y023225
Y024225
X034669
Y023225
Y025225
Y026225
Y027225
Y028225
Y029225
Y030225
Y031225
X035669
Y030225
Y029225
Y028225
Y027225
Y026225
Y025225
Y019225
Y018225
Y017225
X011669Y017235
Y016235
X010669
Y017235
Y018235
Y019235
Y020235
X011669
Y021235
X010669
Y022235
X011669
Y023235
Y024235
X010669
Y023235
Y025235
Y026235
Y027235
Y028235
Y029235
Y030235
Y031235
X011669
Y030235
Y029235
Y028235
Y027235
Y026235
Y025235
Y019235
Y018235
Y032235
X010669
Y033235
X011669
Y034235
Y035235
X010669
Y034235
Y036235
Y037235
Y038235
X011669
Y039235
Y040235
X010669
Y039235
Y041235
Y042235
Y043235
Y044235
Y045235
Y046235
X011669
Y045235
Y044235
Y043235
Y042235
Y041235
Y037235
Y036235
X034669Y036225
Y035225
X035669
Y034225
Y033225
Y032225
X034669
Y033225
Y034225
Y037225
Y038225
X035669
Y039225
Y040225
X034669
Y039225
Y041225
Y042225
Y043225
Y044225
Y045225
Y046225
X035669
Y045225
Y044225
Y043225
Y042225
Y041225
Y037225
Y036225
Y047225
Y048225
Y049225
X034669
Y048225
Y047225
X011669Y047235
Y048235
Y049235
X010669
Y048235
Y047235
T02
X019007Y032923
X020007
X021007
X022007
X023007
X024007
X025007
X026007
X027007
Y033923
X026007
X025007
X024007
X023007
X022007
X021007
X020007
X019007
T03
X031669Y022235
Y023235
Y024235
X032669
Y025235
Y026235
Y027235
Y028235
Y029235
Y030235
Y031235
X031669
Y030235
Y029235
Y028235
Y027235
Y026235
Y025235
X032669Y023235
Y022235
X014669
Y023235
Y024235
Y025235
Y026235
Y027235
Y028235
Y029235
Y030235
Y031235
X013669
Y030235
Y029235
Y028235
Y027235
Y026235
Y025235
Y024235
Y023235
Y022235
Y032235
X014669
Y033235
Y034235
Y035235
X013669
Y036235
X014669
Y038235
Y039235
Y040235
Y041235
Y042235
Y043235
Y044235
X013669
Y045235
X014669
X013669Y043235
Y042235
Y041235
Y040235
Y039235
Y038235
Y034235
Y033235
X031669
X032669
Y032235
X031669
Y034235
X032669
Y035235
Y036235
Y037235
X031669
Y038235
X032669
Y039835
X031669
Y040835
Y041835
Y042835
Y043835
Y044835
Y045835
Y046835
X032669
Y045835
Y044835
Y043835
Y042835
Y041835
Y040835
X031669Y036235
Y035235
Y047835
X032669
Y048835
X031669
M30
