G04*
G04 #@! TF.GenerationSoftware,Altium Limited,Altium Designer,21.9.2 (33)*
G04*
G04 Layer_Physical_Order=1*
G04 Layer_Color=255*
%FSTAX24Y24*%
%MOIN*%
G70*
G04*
G04 #@! TF.SameCoordinates,13D17465-D8B6-41DB-B493-114FC984BDD6*
G04*
G04*
G04 #@! TF.FilePolarity,Positive*
G04*
G01*
G75*
%ADD15C,0.0150*%
%ADD16C,0.0100*%
%ADD17R,0.0728X0.0728*%
%ADD18C,0.0728*%
%ADD19C,0.0598*%
%ADD20R,0.0598X0.0598*%
G36*
X010124Y049914D02*
X036553D01*
Y0143D01*
X01D01*
Y049792D01*
X010061Y049853D01*
Y049912D01*
X010107Y049931D01*
X010124Y049914D01*
D02*
G37*
%LPC*%
G36*
X012084Y049649D02*
X011255D01*
Y048821D01*
X012084D01*
Y049649D01*
D02*
G37*
G36*
X010724D02*
X010615D01*
X01051Y049621D01*
X010415Y049566D01*
X010338Y049489D01*
X010283Y049395D01*
X010255Y049289D01*
Y04918D01*
X010283Y049075D01*
X010338Y048981D01*
X010415Y048903D01*
X01051Y048849D01*
X010615Y048821D01*
X010724D01*
X010829Y048849D01*
X010924Y048903D01*
X011001Y048981D01*
X011055Y049075D01*
X011084Y04918D01*
Y049289D01*
X011055Y049395D01*
X011001Y049489D01*
X010924Y049566D01*
X010829Y049621D01*
X010724Y049649D01*
D02*
G37*
G36*
X036084Y049639D02*
X035255D01*
Y048811D01*
X036084D01*
Y049639D01*
D02*
G37*
G36*
X034724D02*
X034615D01*
X03451Y049611D01*
X034415Y049556D01*
X034338Y049479D01*
X034283Y049385D01*
X034255Y04928D01*
Y049171D01*
X034283Y049065D01*
X034338Y048971D01*
X034415Y048894D01*
X03451Y048839D01*
X034615Y048811D01*
X034724D01*
X034829Y048839D01*
X034924Y048894D01*
X035001Y048971D01*
X035055Y049065D01*
X035084Y049171D01*
Y04928D01*
X035055Y049385D01*
X035001Y049479D01*
X034924Y049556D01*
X034829Y049611D01*
X034724Y049639D01*
D02*
G37*
G36*
X033084Y049249D02*
X032255D01*
Y048421D01*
X033084D01*
Y049249D01*
D02*
G37*
G36*
X031724D02*
X031615D01*
X03151Y049221D01*
X031415Y049166D01*
X031338Y049089D01*
X031283Y048995D01*
X031255Y048889D01*
Y04878D01*
X031283Y048675D01*
X031338Y048581D01*
X031415Y048503D01*
X03151Y048449D01*
X031615Y048421D01*
X031724D01*
X031829Y048449D01*
X031924Y048503D01*
X032001Y048581D01*
X032055Y048675D01*
X032084Y04878D01*
Y048889D01*
X032055Y048995D01*
X032001Y049089D01*
X031924Y049166D01*
X031829Y049221D01*
X031724Y049249D01*
D02*
G37*
G36*
X011724Y048649D02*
X011615D01*
X01151Y048621D01*
X011415Y048566D01*
X011338Y048489D01*
X011283Y048395D01*
X011255Y048289D01*
Y04818D01*
X011283Y048075D01*
X011338Y047981D01*
X011415Y047903D01*
X01151Y047849D01*
X011615Y047821D01*
X011724D01*
X011829Y047849D01*
X011924Y047903D01*
X012001Y047981D01*
X012055Y048075D01*
X012084Y04818D01*
Y048289D01*
X012055Y048395D01*
X012001Y048489D01*
X011924Y048566D01*
X011829Y048621D01*
X011724Y048649D01*
D02*
G37*
G36*
X010724D02*
X010615D01*
X01051Y048621D01*
X010415Y048566D01*
X010338Y048489D01*
X010283Y048395D01*
X010255Y048289D01*
Y04818D01*
X010283Y048075D01*
X010338Y047981D01*
X010415Y047903D01*
X01051Y047849D01*
X010615Y047821D01*
X010724D01*
X010829Y047849D01*
X010924Y047903D01*
X011001Y047981D01*
X011055Y048075D01*
X011084Y04818D01*
Y048289D01*
X011055Y048395D01*
X011001Y048489D01*
X010924Y048566D01*
X010829Y048621D01*
X010724Y048649D01*
D02*
G37*
G36*
X035724Y048639D02*
X035615D01*
X03551Y048611D01*
X035415Y048556D01*
X035338Y048479D01*
X035283Y048385D01*
X035255Y04828D01*
Y048171D01*
X035283Y048065D01*
X035338Y047971D01*
X035415Y047894D01*
X03551Y047839D01*
X035615Y047811D01*
X035724D01*
X035829Y047839D01*
X035924Y047894D01*
X036001Y047971D01*
X036055Y048065D01*
X036084Y048171D01*
Y04828D01*
X036055Y048385D01*
X036001Y048479D01*
X035924Y048556D01*
X035829Y048611D01*
X035724Y048639D01*
D02*
G37*
G36*
X034724D02*
X034615D01*
X03451Y048611D01*
X034415Y048556D01*
X034338Y048479D01*
X034283Y048385D01*
X034255Y04828D01*
Y048171D01*
X034283Y048065D01*
X034338Y047971D01*
X034415Y047894D01*
X03451Y047839D01*
X034615Y047811D01*
X034724D01*
X034829Y047839D01*
X034924Y047894D01*
X035001Y047971D01*
X035055Y048065D01*
X035084Y048171D01*
Y04828D01*
X035055Y048385D01*
X035001Y048479D01*
X034924Y048556D01*
X034829Y048611D01*
X034724Y048639D01*
D02*
G37*
G36*
X032724Y048249D02*
X032615D01*
X03251Y048221D01*
X032415Y048166D01*
X032338Y048089D01*
X032283Y047995D01*
X032255Y047889D01*
Y04778D01*
X032283Y047675D01*
X032338Y047581D01*
X032415Y047503D01*
X03251Y047449D01*
X032615Y047421D01*
X032724D01*
X032829Y047449D01*
X032924Y047503D01*
X033001Y047581D01*
X033055Y047675D01*
X033084Y04778D01*
Y047889D01*
X033055Y047995D01*
X033001Y048089D01*
X032924Y048166D01*
X032829Y048221D01*
X032724Y048249D01*
D02*
G37*
G36*
X031724D02*
X031615D01*
X03151Y048221D01*
X031415Y048166D01*
X031338Y048089D01*
X031283Y047995D01*
X031255Y047889D01*
Y04778D01*
X031283Y047675D01*
X031338Y047581D01*
X031415Y047503D01*
X03151Y047449D01*
X031615Y047421D01*
X031724D01*
X031829Y047449D01*
X031924Y047503D01*
X032001Y047581D01*
X032055Y047675D01*
X032084Y04778D01*
Y047889D01*
X032055Y047995D01*
X032001Y048089D01*
X031924Y048166D01*
X031829Y048221D01*
X031724Y048249D01*
D02*
G37*
G36*
X011724Y047649D02*
X011615D01*
X01151Y047621D01*
X011415Y047566D01*
X011338Y047489D01*
X011283Y047395D01*
X011255Y047289D01*
Y04718D01*
X011283Y047075D01*
X011338Y046981D01*
X011415Y046904D01*
X01151Y046849D01*
X011615Y046821D01*
X011724D01*
X011829Y046849D01*
X011924Y046904D01*
X012001Y046981D01*
X012055Y047075D01*
X012084Y04718D01*
Y047289D01*
X012055Y047395D01*
X012001Y047489D01*
X011924Y047566D01*
X011829Y047621D01*
X011724Y047649D01*
D02*
G37*
G36*
X010724D02*
X010615D01*
X01051Y047621D01*
X010415Y047566D01*
X010338Y047489D01*
X010283Y047395D01*
X010255Y047289D01*
Y04718D01*
X010283Y047075D01*
X010338Y046981D01*
X010415Y046904D01*
X01051Y046849D01*
X010615Y046821D01*
X010724D01*
X010829Y046849D01*
X010924Y046904D01*
X011001Y046981D01*
X011055Y047075D01*
X011084Y04718D01*
Y047289D01*
X011055Y047395D01*
X011001Y047489D01*
X010924Y047566D01*
X010829Y047621D01*
X010724Y047649D01*
D02*
G37*
G36*
X035724Y047639D02*
X035615D01*
X03551Y047611D01*
X035415Y047557D01*
X035338Y047479D01*
X035283Y047385D01*
X035255Y04728D01*
Y047171D01*
X035283Y047065D01*
X035338Y046971D01*
X035415Y046894D01*
X03551Y046839D01*
X035615Y046811D01*
X035724D01*
X035829Y046839D01*
X035924Y046894D01*
X036001Y046971D01*
X036055Y047065D01*
X036084Y047171D01*
Y04728D01*
X036055Y047385D01*
X036001Y047479D01*
X035924Y047557D01*
X035829Y047611D01*
X035724Y047639D01*
D02*
G37*
G36*
X034724D02*
X034615D01*
X03451Y047611D01*
X034415Y047557D01*
X034338Y047479D01*
X034283Y047385D01*
X034255Y04728D01*
Y047171D01*
X034283Y047065D01*
X034338Y046971D01*
X034415Y046894D01*
X03451Y046839D01*
X034615Y046811D01*
X034724D01*
X034829Y046839D01*
X034924Y046894D01*
X035001Y046971D01*
X035055Y047065D01*
X035084Y047171D01*
Y04728D01*
X035055Y047385D01*
X035001Y047479D01*
X034924Y047557D01*
X034829Y047611D01*
X034724Y047639D01*
D02*
G37*
G36*
X032724Y047249D02*
X032615D01*
X03251Y047221D01*
X032415Y047166D01*
X032338Y047089D01*
X032283Y046995D01*
X032255Y046889D01*
Y04678D01*
X032283Y046675D01*
X032338Y046581D01*
X032415Y046504D01*
X03251Y046449D01*
X032615Y046421D01*
X032724D01*
X032829Y046449D01*
X032924Y046504D01*
X033001Y046581D01*
X033055Y046675D01*
X033084Y04678D01*
Y046889D01*
X033055Y046995D01*
X033001Y047089D01*
X032924Y047166D01*
X032829Y047221D01*
X032724Y047249D01*
D02*
G37*
G36*
X031724D02*
X031615D01*
X03151Y047221D01*
X031415Y047166D01*
X031338Y047089D01*
X031283Y046995D01*
X031255Y046889D01*
Y04678D01*
X031283Y046675D01*
X031338Y046581D01*
X031415Y046504D01*
X03151Y046449D01*
X031615Y046421D01*
X031724D01*
X031829Y046449D01*
X031924Y046504D01*
X032001Y046581D01*
X032055Y046675D01*
X032084Y04678D01*
Y046889D01*
X032055Y046995D01*
X032001Y047089D01*
X031924Y047166D01*
X031829Y047221D01*
X031724Y047249D01*
D02*
G37*
G36*
X011724Y046649D02*
X011615D01*
X01151Y046621D01*
X011415Y046566D01*
X011338Y046489D01*
X011283Y046395D01*
X011255Y046289D01*
Y04618D01*
X011283Y046075D01*
X011338Y045981D01*
X011415Y045904D01*
X01151Y045849D01*
X011615Y045821D01*
X011724D01*
X011829Y045849D01*
X011924Y045904D01*
X012001Y045981D01*
X012055Y046075D01*
X012084Y04618D01*
Y046289D01*
X012055Y046395D01*
X012001Y046489D01*
X011924Y046566D01*
X011829Y046621D01*
X011724Y046649D01*
D02*
G37*
G36*
X010724D02*
X010615D01*
X01051Y046621D01*
X010415Y046566D01*
X010338Y046489D01*
X010283Y046395D01*
X010255Y046289D01*
Y04618D01*
X010283Y046075D01*
X010338Y045981D01*
X010415Y045904D01*
X01051Y045849D01*
X010615Y045821D01*
X010724D01*
X010829Y045849D01*
X010924Y045904D01*
X011001Y045981D01*
X011055Y046075D01*
X011084Y04618D01*
Y046289D01*
X011055Y046395D01*
X011001Y046489D01*
X010924Y046566D01*
X010829Y046621D01*
X010724Y046649D01*
D02*
G37*
G36*
X035724Y046639D02*
X035615D01*
X03551Y046611D01*
X035415Y046557D01*
X035338Y046479D01*
X035283Y046385D01*
X035255Y04628D01*
Y046171D01*
X035283Y046065D01*
X035338Y045971D01*
X035415Y045894D01*
X03551Y045839D01*
X035615Y045811D01*
X035724D01*
X035829Y045839D01*
X035924Y045894D01*
X036001Y045971D01*
X036055Y046065D01*
X036084Y046171D01*
Y04628D01*
X036055Y046385D01*
X036001Y046479D01*
X035924Y046557D01*
X035829Y046611D01*
X035724Y046639D01*
D02*
G37*
G36*
X034724D02*
X034615D01*
X03451Y046611D01*
X034415Y046557D01*
X034338Y046479D01*
X034283Y046385D01*
X034255Y04628D01*
Y046171D01*
X034283Y046065D01*
X034338Y045971D01*
X034415Y045894D01*
X03451Y045839D01*
X034615Y045811D01*
X034724D01*
X034829Y045839D01*
X034924Y045894D01*
X035001Y045971D01*
X035055Y046065D01*
X035084Y046171D01*
Y04628D01*
X035055Y046385D01*
X035001Y046479D01*
X034924Y046557D01*
X034829Y046611D01*
X034724Y046639D01*
D02*
G37*
G36*
X032724Y046249D02*
X032615D01*
X03251Y046221D01*
X032415Y046166D01*
X032338Y046089D01*
X032283Y045995D01*
X032255Y045889D01*
Y04578D01*
X032283Y045675D01*
X032338Y045581D01*
X032415Y045504D01*
X03251Y045449D01*
X032615Y045421D01*
X032724D01*
X032829Y045449D01*
X032924Y045504D01*
X033001Y045581D01*
X033055Y045675D01*
X033084Y04578D01*
Y045889D01*
X033055Y045995D01*
X033001Y046089D01*
X032924Y046166D01*
X032829Y046221D01*
X032724Y046249D01*
D02*
G37*
G36*
X031724D02*
X031615D01*
X03151Y046221D01*
X031415Y046166D01*
X031338Y046089D01*
X031283Y045995D01*
X031255Y045889D01*
Y04578D01*
X031283Y045675D01*
X031338Y045581D01*
X031415Y045504D01*
X03151Y045449D01*
X031615Y045421D01*
X031724D01*
X031829Y045449D01*
X031924Y045504D01*
X032001Y045581D01*
X032055Y045675D01*
X032084Y04578D01*
Y045889D01*
X032055Y045995D01*
X032001Y046089D01*
X031924Y046166D01*
X031829Y046221D01*
X031724Y046249D01*
D02*
G37*
G36*
X015084Y045649D02*
X014255D01*
Y044821D01*
X015084D01*
Y045649D01*
D02*
G37*
G36*
X013724D02*
X013615D01*
X01351Y045621D01*
X013415Y045566D01*
X013338Y045489D01*
X013283Y045395D01*
X013255Y045289D01*
Y04518D01*
X013283Y045075D01*
X013338Y044981D01*
X013415Y044903D01*
X01351Y044849D01*
X013615Y044821D01*
X013724D01*
X013829Y044849D01*
X013924Y044903D01*
X014001Y044981D01*
X014055Y045075D01*
X014084Y04518D01*
Y045289D01*
X014055Y045395D01*
X014001Y045489D01*
X013924Y045566D01*
X013829Y045621D01*
X013724Y045649D01*
D02*
G37*
G36*
X011724D02*
X011615D01*
X01151Y045621D01*
X011415Y045566D01*
X011338Y045489D01*
X011283Y045395D01*
X011255Y045289D01*
Y04518D01*
X011283Y045075D01*
X011338Y044981D01*
X011415Y044903D01*
X01151Y044849D01*
X011615Y044821D01*
X011724D01*
X011829Y044849D01*
X011924Y044903D01*
X012001Y044981D01*
X012055Y045075D01*
X012084Y04518D01*
Y045289D01*
X012055Y045395D01*
X012001Y045489D01*
X011924Y045566D01*
X011829Y045621D01*
X011724Y045649D01*
D02*
G37*
G36*
X010724D02*
X010615D01*
X01051Y045621D01*
X010415Y045566D01*
X010338Y045489D01*
X010283Y045395D01*
X010255Y045289D01*
Y04518D01*
X010283Y045075D01*
X010338Y044981D01*
X010415Y044903D01*
X01051Y044849D01*
X010615Y044821D01*
X010724D01*
X010829Y044849D01*
X010924Y044903D01*
X011001Y044981D01*
X011055Y045075D01*
X011084Y04518D01*
Y045289D01*
X011055Y045395D01*
X011001Y045489D01*
X010924Y045566D01*
X010829Y045621D01*
X010724Y045649D01*
D02*
G37*
G36*
X035724Y045639D02*
X035615D01*
X03551Y045611D01*
X035415Y045557D01*
X035338Y045479D01*
X035283Y045385D01*
X035255Y04528D01*
Y045171D01*
X035283Y045065D01*
X035338Y044971D01*
X035415Y044894D01*
X03551Y044839D01*
X035615Y044811D01*
X035724D01*
X035829Y044839D01*
X035924Y044894D01*
X036001Y044971D01*
X036055Y045065D01*
X036084Y045171D01*
Y04528D01*
X036055Y045385D01*
X036001Y045479D01*
X035924Y045557D01*
X035829Y045611D01*
X035724Y045639D01*
D02*
G37*
G36*
X034724D02*
X034615D01*
X03451Y045611D01*
X034415Y045557D01*
X034338Y045479D01*
X034283Y045385D01*
X034255Y04528D01*
Y045171D01*
X034283Y045065D01*
X034338Y044971D01*
X034415Y044894D01*
X03451Y044839D01*
X034615Y044811D01*
X034724D01*
X034829Y044839D01*
X034924Y044894D01*
X035001Y044971D01*
X035055Y045065D01*
X035084Y045171D01*
Y04528D01*
X035055Y045385D01*
X035001Y045479D01*
X034924Y045557D01*
X034829Y045611D01*
X034724Y045639D01*
D02*
G37*
G36*
X032724Y045249D02*
X032615D01*
X03251Y045221D01*
X032415Y045166D01*
X032338Y045089D01*
X032283Y044995D01*
X032255Y044889D01*
Y04478D01*
X032283Y044675D01*
X032338Y044581D01*
X032415Y044503D01*
X03251Y044449D01*
X032615Y044421D01*
X032724D01*
X032829Y044449D01*
X032924Y044503D01*
X033001Y044581D01*
X033055Y044675D01*
X033084Y04478D01*
Y044889D01*
X033055Y044995D01*
X033001Y045089D01*
X032924Y045166D01*
X032829Y045221D01*
X032724Y045249D01*
D02*
G37*
G36*
X031724D02*
X031615D01*
X03151Y045221D01*
X031415Y045166D01*
X031338Y045089D01*
X031283Y044995D01*
X031255Y044889D01*
Y04478D01*
X031283Y044675D01*
X031338Y044581D01*
X031415Y044503D01*
X03151Y044449D01*
X031615Y044421D01*
X031724D01*
X031829Y044449D01*
X031924Y044503D01*
X032001Y044581D01*
X032055Y044675D01*
X032084Y04478D01*
Y044889D01*
X032055Y044995D01*
X032001Y045089D01*
X031924Y045166D01*
X031829Y045221D01*
X031724Y045249D01*
D02*
G37*
G36*
X014724Y044649D02*
X014615D01*
X01451Y044621D01*
X014415Y044566D01*
X014338Y044489D01*
X014283Y044395D01*
X014255Y044289D01*
Y04418D01*
X014283Y044075D01*
X014338Y043981D01*
X014415Y043903D01*
X01451Y043849D01*
X014615Y043821D01*
X014724D01*
X014829Y043849D01*
X014924Y043903D01*
X015001Y043981D01*
X015055Y044075D01*
X015084Y04418D01*
Y044289D01*
X015055Y044395D01*
X015001Y044489D01*
X014924Y044566D01*
X014829Y044621D01*
X014724Y044649D01*
D02*
G37*
G36*
X013724D02*
X013615D01*
X01351Y044621D01*
X013415Y044566D01*
X013338Y044489D01*
X013283Y044395D01*
X013255Y044289D01*
Y04418D01*
X013283Y044075D01*
X013338Y043981D01*
X013415Y043903D01*
X01351Y043849D01*
X013615Y043821D01*
X013724D01*
X013829Y043849D01*
X013924Y043903D01*
X014001Y043981D01*
X014055Y044075D01*
X014084Y04418D01*
Y044289D01*
X014055Y044395D01*
X014001Y044489D01*
X013924Y044566D01*
X013829Y044621D01*
X013724Y044649D01*
D02*
G37*
G36*
X011724D02*
X011615D01*
X01151Y044621D01*
X011415Y044566D01*
X011338Y044489D01*
X011283Y044395D01*
X011255Y044289D01*
Y04418D01*
X011283Y044075D01*
X011338Y043981D01*
X011415Y043903D01*
X01151Y043849D01*
X011615Y043821D01*
X011724D01*
X011829Y043849D01*
X011924Y043903D01*
X012001Y043981D01*
X012055Y044075D01*
X012084Y04418D01*
Y044289D01*
X012055Y044395D01*
X012001Y044489D01*
X011924Y044566D01*
X011829Y044621D01*
X011724Y044649D01*
D02*
G37*
G36*
X010724D02*
X010615D01*
X01051Y044621D01*
X010415Y044566D01*
X010338Y044489D01*
X010283Y044395D01*
X010255Y044289D01*
Y04418D01*
X010283Y044075D01*
X010338Y043981D01*
X010415Y043903D01*
X01051Y043849D01*
X010615Y043821D01*
X010724D01*
X010829Y043849D01*
X010924Y043903D01*
X011001Y043981D01*
X011055Y044075D01*
X011084Y04418D01*
Y044289D01*
X011055Y044395D01*
X011001Y044489D01*
X010924Y044566D01*
X010829Y044621D01*
X010724Y044649D01*
D02*
G37*
G36*
X035724Y044639D02*
X035615D01*
X03551Y044611D01*
X035415Y044556D01*
X035338Y044479D01*
X035283Y044385D01*
X035255Y04428D01*
Y044171D01*
X035283Y044065D01*
X035338Y043971D01*
X035415Y043894D01*
X03551Y043839D01*
X035615Y043811D01*
X035724D01*
X035829Y043839D01*
X035924Y043894D01*
X036001Y043971D01*
X036055Y044065D01*
X036084Y044171D01*
Y04428D01*
X036055Y044385D01*
X036001Y044479D01*
X035924Y044556D01*
X035829Y044611D01*
X035724Y044639D01*
D02*
G37*
G36*
X034724D02*
X034615D01*
X03451Y044611D01*
X034415Y044556D01*
X034338Y044479D01*
X034283Y044385D01*
X034255Y04428D01*
Y044171D01*
X034283Y044065D01*
X034338Y043971D01*
X034415Y043894D01*
X03451Y043839D01*
X034615Y043811D01*
X034724D01*
X034829Y043839D01*
X034924Y043894D01*
X035001Y043971D01*
X035055Y044065D01*
X035084Y044171D01*
Y04428D01*
X035055Y044385D01*
X035001Y044479D01*
X034924Y044556D01*
X034829Y044611D01*
X034724Y044639D01*
D02*
G37*
G36*
X032724Y044249D02*
X032615D01*
X03251Y044221D01*
X032415Y044166D01*
X032338Y044089D01*
X032283Y043995D01*
X032255Y043889D01*
Y04378D01*
X032283Y043675D01*
X032338Y043581D01*
X032415Y043503D01*
X03251Y043449D01*
X032615Y043421D01*
X032724D01*
X032829Y043449D01*
X032924Y043503D01*
X033001Y043581D01*
X033055Y043675D01*
X033084Y04378D01*
Y043889D01*
X033055Y043995D01*
X033001Y044089D01*
X032924Y044166D01*
X032829Y044221D01*
X032724Y044249D01*
D02*
G37*
G36*
X031724D02*
X031615D01*
X03151Y044221D01*
X031415Y044166D01*
X031338Y044089D01*
X031283Y043995D01*
X031255Y043889D01*
Y04378D01*
X031283Y043675D01*
X031338Y043581D01*
X031415Y043503D01*
X03151Y043449D01*
X031615Y043421D01*
X031724D01*
X031829Y043449D01*
X031924Y043503D01*
X032001Y043581D01*
X032055Y043675D01*
X032084Y04378D01*
Y043889D01*
X032055Y043995D01*
X032001Y044089D01*
X031924Y044166D01*
X031829Y044221D01*
X031724Y044249D01*
D02*
G37*
G36*
X014724Y043649D02*
X014615D01*
X01451Y043621D01*
X014415Y043566D01*
X014338Y043489D01*
X014283Y043395D01*
X014255Y043289D01*
Y04318D01*
X014283Y043075D01*
X014338Y042981D01*
X014415Y042903D01*
X01451Y042849D01*
X014615Y042821D01*
X014724D01*
X014829Y042849D01*
X014924Y042903D01*
X015001Y042981D01*
X015055Y043075D01*
X015084Y04318D01*
Y043289D01*
X015055Y043395D01*
X015001Y043489D01*
X014924Y043566D01*
X014829Y043621D01*
X014724Y043649D01*
D02*
G37*
G36*
X013724D02*
X013615D01*
X01351Y043621D01*
X013415Y043566D01*
X013338Y043489D01*
X013283Y043395D01*
X013255Y043289D01*
Y04318D01*
X013283Y043075D01*
X013338Y042981D01*
X013415Y042903D01*
X01351Y042849D01*
X013615Y042821D01*
X013724D01*
X013829Y042849D01*
X013924Y042903D01*
X014001Y042981D01*
X014055Y043075D01*
X014084Y04318D01*
Y043289D01*
X014055Y043395D01*
X014001Y043489D01*
X013924Y043566D01*
X013829Y043621D01*
X013724Y043649D01*
D02*
G37*
G36*
X011724D02*
X011615D01*
X01151Y043621D01*
X011415Y043566D01*
X011338Y043489D01*
X011283Y043395D01*
X011255Y043289D01*
Y04318D01*
X011283Y043075D01*
X011338Y042981D01*
X011415Y042903D01*
X01151Y042849D01*
X011615Y042821D01*
X011724D01*
X011829Y042849D01*
X011924Y042903D01*
X012001Y042981D01*
X012055Y043075D01*
X012084Y04318D01*
Y043289D01*
X012055Y043395D01*
X012001Y043489D01*
X011924Y043566D01*
X011829Y043621D01*
X011724Y043649D01*
D02*
G37*
G36*
X010724D02*
X010615D01*
X01051Y043621D01*
X010415Y043566D01*
X010338Y043489D01*
X010283Y043395D01*
X010255Y043289D01*
Y04318D01*
X010283Y043075D01*
X010338Y042981D01*
X010415Y042903D01*
X01051Y042849D01*
X010615Y042821D01*
X010724D01*
X010829Y042849D01*
X010924Y042903D01*
X011001Y042981D01*
X011055Y043075D01*
X011084Y04318D01*
Y043289D01*
X011055Y043395D01*
X011001Y043489D01*
X010924Y043566D01*
X010829Y043621D01*
X010724Y043649D01*
D02*
G37*
G36*
X035724Y043639D02*
X035615D01*
X03551Y043611D01*
X035415Y043556D01*
X035338Y043479D01*
X035283Y043385D01*
X035255Y04328D01*
Y043171D01*
X035283Y043065D01*
X035338Y042971D01*
X035415Y042894D01*
X03551Y042839D01*
X035615Y042811D01*
X035724D01*
X035829Y042839D01*
X035924Y042894D01*
X036001Y042971D01*
X036055Y043065D01*
X036084Y043171D01*
Y04328D01*
X036055Y043385D01*
X036001Y043479D01*
X035924Y043556D01*
X035829Y043611D01*
X035724Y043639D01*
D02*
G37*
G36*
X034724D02*
X034615D01*
X03451Y043611D01*
X034415Y043556D01*
X034338Y043479D01*
X034283Y043385D01*
X034255Y04328D01*
Y043171D01*
X034283Y043065D01*
X034338Y042971D01*
X034415Y042894D01*
X03451Y042839D01*
X034615Y042811D01*
X034724D01*
X034829Y042839D01*
X034924Y042894D01*
X035001Y042971D01*
X035055Y043065D01*
X035084Y043171D01*
Y04328D01*
X035055Y043385D01*
X035001Y043479D01*
X034924Y043556D01*
X034829Y043611D01*
X034724Y043639D01*
D02*
G37*
G36*
X032724Y043249D02*
X032615D01*
X03251Y043221D01*
X032415Y043166D01*
X032338Y043089D01*
X032283Y042995D01*
X032255Y042889D01*
Y04278D01*
X032283Y042675D01*
X032338Y042581D01*
X032415Y042503D01*
X03251Y042449D01*
X032615Y042421D01*
X032724D01*
X032829Y042449D01*
X032924Y042503D01*
X033001Y042581D01*
X033055Y042675D01*
X033084Y04278D01*
Y042889D01*
X033055Y042995D01*
X033001Y043089D01*
X032924Y043166D01*
X032829Y043221D01*
X032724Y043249D01*
D02*
G37*
G36*
X031724D02*
X031615D01*
X03151Y043221D01*
X031415Y043166D01*
X031338Y043089D01*
X031283Y042995D01*
X031255Y042889D01*
Y04278D01*
X031283Y042675D01*
X031338Y042581D01*
X031415Y042503D01*
X03151Y042449D01*
X031615Y042421D01*
X031724D01*
X031829Y042449D01*
X031924Y042503D01*
X032001Y042581D01*
X032055Y042675D01*
X032084Y04278D01*
Y042889D01*
X032055Y042995D01*
X032001Y043089D01*
X031924Y043166D01*
X031829Y043221D01*
X031724Y043249D01*
D02*
G37*
G36*
X013724Y042649D02*
X013615D01*
X01351Y042621D01*
X013415Y042566D01*
X013338Y042489D01*
X013283Y042395D01*
X013255Y042289D01*
Y042286D01*
X013213D01*
X013164Y042276D01*
X013123Y042249D01*
X012711Y041838D01*
X012684Y041796D01*
X012674Y041747D01*
Y037722D01*
X012684Y037673D01*
X012711Y037631D01*
X013237Y037106D01*
X013279Y037078D01*
X013327Y037068D01*
X014682D01*
X015051Y036699D01*
X015031Y036649D01*
X014255D01*
Y035821D01*
X015084D01*
Y036596D01*
X015134Y036617D01*
X018686Y033065D01*
X018682Y033058D01*
X018658Y032969D01*
Y032878D01*
X018682Y032789D01*
X018728Y032709D01*
X018793Y032644D01*
X018873Y032598D01*
X018961Y032574D01*
X019053D01*
X019142Y032598D01*
X019222Y032644D01*
X019287Y032709D01*
X019333Y032789D01*
X019357Y032878D01*
Y032969D01*
X019333Y033058D01*
X019287Y033138D01*
X019222Y033203D01*
X019142Y033249D01*
X019053Y033273D01*
X018961D01*
X018873Y033249D01*
X018866Y033245D01*
X014825Y037286D01*
X014784Y037314D01*
X014735Y037323D01*
X01338D01*
X012929Y037774D01*
Y041695D01*
X013263Y042028D01*
X013313Y042024D01*
X013338Y041981D01*
X013415Y041904D01*
X01351Y041849D01*
X013615Y041821D01*
X013724D01*
X013829Y041849D01*
X013924Y041904D01*
X014001Y041981D01*
X014055Y042075D01*
X014084Y04218D01*
Y042289D01*
X014055Y042395D01*
X014001Y042489D01*
X013924Y042566D01*
X013829Y042621D01*
X013724Y042649D01*
D02*
G37*
G36*
X011724D02*
X011615D01*
X01151Y042621D01*
X011415Y042566D01*
X011338Y042489D01*
X011283Y042395D01*
X011255Y042289D01*
Y04218D01*
X011283Y042075D01*
X011338Y041981D01*
X011415Y041904D01*
X01151Y041849D01*
X011615Y041821D01*
X011724D01*
X011829Y041849D01*
X011924Y041904D01*
X012001Y041981D01*
X012055Y042075D01*
X012084Y04218D01*
Y042289D01*
X012055Y042395D01*
X012001Y042489D01*
X011924Y042566D01*
X011829Y042621D01*
X011724Y042649D01*
D02*
G37*
G36*
X010724D02*
X010615D01*
X01051Y042621D01*
X010415Y042566D01*
X010338Y042489D01*
X010283Y042395D01*
X010255Y042289D01*
Y04218D01*
X010283Y042075D01*
X010338Y041981D01*
X010415Y041904D01*
X01051Y041849D01*
X010615Y041821D01*
X010724D01*
X010829Y041849D01*
X010924Y041904D01*
X011001Y041981D01*
X011055Y042075D01*
X011084Y04218D01*
Y042289D01*
X011055Y042395D01*
X011001Y042489D01*
X010924Y042566D01*
X010829Y042621D01*
X010724Y042649D01*
D02*
G37*
G36*
X035724Y042639D02*
X035615D01*
X03551Y042611D01*
X035415Y042557D01*
X035338Y042479D01*
X035283Y042385D01*
X035255Y04228D01*
Y042171D01*
X035283Y042065D01*
X035338Y041971D01*
X035415Y041894D01*
X03551Y041839D01*
X035615Y041811D01*
X035724D01*
X035829Y041839D01*
X035924Y041894D01*
X036001Y041971D01*
X036055Y042065D01*
X036084Y042171D01*
Y04228D01*
X036055Y042385D01*
X036001Y042479D01*
X035924Y042557D01*
X035829Y042611D01*
X035724Y042639D01*
D02*
G37*
G36*
X034724D02*
X034615D01*
X03451Y042611D01*
X034415Y042557D01*
X034338Y042479D01*
X034283Y042385D01*
X034255Y04228D01*
Y042171D01*
X034283Y042065D01*
X034338Y041971D01*
X034415Y041894D01*
X03451Y041839D01*
X034615Y041811D01*
X034724D01*
X034829Y041839D01*
X034924Y041894D01*
X035001Y041971D01*
X035055Y042065D01*
X035084Y042171D01*
Y04228D01*
X035055Y042385D01*
X035001Y042479D01*
X034924Y042557D01*
X034829Y042611D01*
X034724Y042639D01*
D02*
G37*
G36*
X032724Y042249D02*
X032615D01*
X03251Y042221D01*
X032415Y042166D01*
X032338Y042089D01*
X032283Y041995D01*
X032255Y041889D01*
Y04178D01*
X032283Y041675D01*
X032338Y041581D01*
X032415Y041504D01*
X03251Y041449D01*
X032615Y041421D01*
X032724D01*
X032829Y041449D01*
X032924Y041504D01*
X033001Y041581D01*
X033055Y041675D01*
X033084Y04178D01*
Y041889D01*
X033055Y041995D01*
X033001Y042089D01*
X032924Y042166D01*
X032829Y042221D01*
X032724Y042249D01*
D02*
G37*
G36*
X031724D02*
X031615D01*
X03151Y042221D01*
X031415Y042166D01*
X031338Y042089D01*
X031283Y041995D01*
X031255Y041889D01*
Y04178D01*
X031283Y041675D01*
X031338Y041581D01*
X031415Y041504D01*
X03151Y041449D01*
X031615Y041421D01*
X031724D01*
X031829Y041449D01*
X031924Y041504D01*
X032001Y041581D01*
X032055Y041675D01*
X032084Y04178D01*
Y041889D01*
X032055Y041995D01*
X032001Y042089D01*
X031924Y042166D01*
X031829Y042221D01*
X031724Y042249D01*
D02*
G37*
G36*
X013724Y041649D02*
X013615D01*
X01351Y041621D01*
X013415Y041566D01*
X013338Y041489D01*
X013283Y041395D01*
X013255Y041289D01*
Y04118D01*
X013283Y041075D01*
X013338Y040981D01*
X013415Y040904D01*
X01351Y040849D01*
X013615Y040821D01*
X013724D01*
X013829Y040849D01*
X013924Y040904D01*
X014001Y040981D01*
X014055Y041075D01*
X014084Y04118D01*
Y041289D01*
X014055Y041395D01*
X014001Y041489D01*
X013924Y041566D01*
X013829Y041621D01*
X013724Y041649D01*
D02*
G37*
G36*
X011724D02*
X011615D01*
X01151Y041621D01*
X011415Y041566D01*
X011338Y041489D01*
X011283Y041395D01*
X011255Y041289D01*
Y04118D01*
X011283Y041075D01*
X011338Y040981D01*
X011415Y040904D01*
X01151Y040849D01*
X011615Y040821D01*
X011724D01*
X011829Y040849D01*
X011924Y040904D01*
X012001Y040981D01*
X012055Y041075D01*
X012084Y04118D01*
Y041289D01*
X012055Y041395D01*
X012001Y041489D01*
X011924Y041566D01*
X011829Y041621D01*
X011724Y041649D01*
D02*
G37*
G36*
X010724D02*
X010615D01*
X01051Y041621D01*
X010415Y041566D01*
X010338Y041489D01*
X010283Y041395D01*
X010255Y041289D01*
Y04118D01*
X010283Y041075D01*
X010338Y040981D01*
X010415Y040904D01*
X01051Y040849D01*
X010615Y040821D01*
X010724D01*
X010829Y040849D01*
X010924Y040904D01*
X011001Y040981D01*
X011055Y041075D01*
X011084Y04118D01*
Y041289D01*
X011055Y041395D01*
X011001Y041489D01*
X010924Y041566D01*
X010829Y041621D01*
X010724Y041649D01*
D02*
G37*
G36*
X035724Y041639D02*
X035615D01*
X03551Y041611D01*
X035415Y041557D01*
X035338Y041479D01*
X035283Y041385D01*
X035255Y04128D01*
Y041171D01*
X035283Y041065D01*
X035338Y040971D01*
X035415Y040894D01*
X03551Y040839D01*
X035615Y040811D01*
X035724D01*
X035829Y040839D01*
X035924Y040894D01*
X036001Y040971D01*
X036055Y041065D01*
X036084Y041171D01*
Y04128D01*
X036055Y041385D01*
X036001Y041479D01*
X035924Y041557D01*
X035829Y041611D01*
X035724Y041639D01*
D02*
G37*
G36*
X034724D02*
X034615D01*
X03451Y041611D01*
X034415Y041557D01*
X034338Y041479D01*
X034283Y041385D01*
X034255Y04128D01*
Y041171D01*
X034283Y041065D01*
X034338Y040971D01*
X034415Y040894D01*
X03451Y040839D01*
X034615Y040811D01*
X034724D01*
X034829Y040839D01*
X034924Y040894D01*
X035001Y040971D01*
X035055Y041065D01*
X035084Y041171D01*
Y04128D01*
X035055Y041385D01*
X035001Y041479D01*
X034924Y041557D01*
X034829Y041611D01*
X034724Y041639D01*
D02*
G37*
G36*
X032724Y041249D02*
X032615D01*
X03251Y041221D01*
X032415Y041166D01*
X032338Y041089D01*
X032283Y040995D01*
X032255Y040889D01*
Y04078D01*
X032283Y040675D01*
X032338Y040581D01*
X032415Y040504D01*
X03251Y040449D01*
X032615Y040421D01*
X032724D01*
X032829Y040449D01*
X032924Y040504D01*
X033001Y040581D01*
X033055Y040675D01*
X033084Y04078D01*
Y040889D01*
X033055Y040995D01*
X033001Y041089D01*
X032924Y041166D01*
X032829Y041221D01*
X032724Y041249D01*
D02*
G37*
G36*
X031724D02*
X031615D01*
X03151Y041221D01*
X031415Y041166D01*
X031338Y041089D01*
X031283Y040995D01*
X031255Y040889D01*
Y04078D01*
X031283Y040675D01*
X031338Y040581D01*
X031415Y040504D01*
X03151Y040449D01*
X031615Y040421D01*
X031724D01*
X031829Y040449D01*
X031924Y040504D01*
X032001Y040581D01*
X032055Y040675D01*
X032084Y04078D01*
Y040889D01*
X032055Y040995D01*
X032001Y041089D01*
X031924Y041166D01*
X031829Y041221D01*
X031724Y041249D01*
D02*
G37*
G36*
X014724Y040649D02*
X014615D01*
X01451Y040621D01*
X014415Y040566D01*
X014338Y040489D01*
X014283Y040395D01*
X014255Y040289D01*
Y04018D01*
X014283Y040075D01*
X014338Y039981D01*
X014415Y039904D01*
X01451Y039849D01*
X014615Y039821D01*
X014724D01*
X014829Y039849D01*
X014924Y039904D01*
X015001Y039981D01*
X015055Y040075D01*
X015084Y04018D01*
Y040289D01*
X015055Y040395D01*
X015001Y040489D01*
X014924Y040566D01*
X014829Y040621D01*
X014724Y040649D01*
D02*
G37*
G36*
X013724D02*
X013615D01*
X01351Y040621D01*
X013415Y040566D01*
X013338Y040489D01*
X013283Y040395D01*
X013255Y040289D01*
Y04018D01*
X013283Y040075D01*
X013338Y039981D01*
X013415Y039904D01*
X01351Y039849D01*
X013615Y039821D01*
X013724D01*
X013829Y039849D01*
X013924Y039904D01*
X014001Y039981D01*
X014055Y040075D01*
X014084Y04018D01*
Y040289D01*
X014055Y040395D01*
X014001Y040489D01*
X013924Y040566D01*
X013829Y040621D01*
X013724Y040649D01*
D02*
G37*
G36*
X011724D02*
X011615D01*
X01151Y040621D01*
X011415Y040566D01*
X011338Y040489D01*
X011283Y040395D01*
X011255Y040289D01*
Y04018D01*
X011283Y040075D01*
X011338Y039981D01*
X011415Y039904D01*
X01151Y039849D01*
X011615Y039821D01*
X011724D01*
X011829Y039849D01*
X011924Y039904D01*
X012001Y039981D01*
X012055Y040075D01*
X012084Y04018D01*
Y040289D01*
X012055Y040395D01*
X012001Y040489D01*
X011924Y040566D01*
X011829Y040621D01*
X011724Y040649D01*
D02*
G37*
G36*
X010724D02*
X010615D01*
X01051Y040621D01*
X010415Y040566D01*
X010338Y040489D01*
X010283Y040395D01*
X010255Y040289D01*
Y04018D01*
X010283Y040075D01*
X010338Y039981D01*
X010415Y039904D01*
X01051Y039849D01*
X010615Y039821D01*
X010724D01*
X010829Y039849D01*
X010924Y039904D01*
X011001Y039981D01*
X011055Y040075D01*
X011084Y04018D01*
Y040289D01*
X011055Y040395D01*
X011001Y040489D01*
X010924Y040566D01*
X010829Y040621D01*
X010724Y040649D01*
D02*
G37*
G36*
X035724Y040639D02*
X035615D01*
X03551Y040611D01*
X035415Y040557D01*
X035338Y040479D01*
X035283Y040385D01*
X035255Y04028D01*
Y040171D01*
X035283Y040065D01*
X035338Y039971D01*
X035415Y039894D01*
X03551Y039839D01*
X035615Y039811D01*
X035724D01*
X035829Y039839D01*
X035924Y039894D01*
X036001Y039971D01*
X036055Y040065D01*
X036084Y040171D01*
Y04028D01*
X036055Y040385D01*
X036001Y040479D01*
X035924Y040557D01*
X035829Y040611D01*
X035724Y040639D01*
D02*
G37*
G36*
X034724D02*
X034615D01*
X03451Y040611D01*
X034415Y040557D01*
X034338Y040479D01*
X034283Y040385D01*
X034255Y04028D01*
Y040171D01*
X034283Y040065D01*
X034338Y039971D01*
X034415Y039894D01*
X03451Y039839D01*
X034615Y039811D01*
X034724D01*
X034829Y039839D01*
X034924Y039894D01*
X035001Y039971D01*
X035055Y040065D01*
X035084Y040171D01*
Y04028D01*
X035055Y040385D01*
X035001Y040479D01*
X034924Y040557D01*
X034829Y040611D01*
X034724Y040639D01*
D02*
G37*
G36*
X032724Y040249D02*
X032615D01*
X03251Y040221D01*
X032415Y040166D01*
X032338Y040089D01*
X032283Y039995D01*
X032255Y039889D01*
Y03978D01*
X032283Y039675D01*
X032338Y039581D01*
X032415Y039504D01*
X03251Y039449D01*
X032615Y039421D01*
X032724D01*
X032829Y039449D01*
X032924Y039504D01*
X033001Y039581D01*
X033055Y039675D01*
X033084Y03978D01*
Y039889D01*
X033055Y039995D01*
X033001Y040089D01*
X032924Y040166D01*
X032829Y040221D01*
X032724Y040249D01*
D02*
G37*
G36*
X031724D02*
X031615D01*
X03151Y040221D01*
X031415Y040166D01*
X031338Y040089D01*
X031283Y039995D01*
X031255Y039889D01*
Y03978D01*
X031283Y039675D01*
X031338Y039581D01*
X031415Y039504D01*
X03151Y039449D01*
X031615Y039421D01*
X031724D01*
X031829Y039449D01*
X031924Y039504D01*
X032001Y039581D01*
X032055Y039675D01*
X032084Y03978D01*
Y039889D01*
X032055Y039995D01*
X032001Y040089D01*
X031924Y040166D01*
X031829Y040221D01*
X031724Y040249D01*
D02*
G37*
G36*
X014724Y039649D02*
X014615D01*
X01451Y039621D01*
X014415Y039566D01*
X014338Y039489D01*
X014283Y039395D01*
X014255Y039289D01*
Y03918D01*
X014283Y039075D01*
X014338Y038981D01*
X014415Y038904D01*
X01451Y038849D01*
X014615Y038821D01*
X014724D01*
X014829Y038849D01*
X014924Y038904D01*
X015001Y038981D01*
X015055Y039075D01*
X015084Y03918D01*
Y039289D01*
X015055Y039395D01*
X015001Y039489D01*
X014924Y039566D01*
X014829Y039621D01*
X014724Y039649D01*
D02*
G37*
G36*
X013724D02*
X013615D01*
X01351Y039621D01*
X013415Y039566D01*
X013338Y039489D01*
X013283Y039395D01*
X013255Y039289D01*
Y03918D01*
X013283Y039075D01*
X013338Y038981D01*
X013415Y038904D01*
X01351Y038849D01*
X013615Y038821D01*
X013724D01*
X013829Y038849D01*
X013924Y038904D01*
X014001Y038981D01*
X014055Y039075D01*
X014084Y03918D01*
Y039289D01*
X014055Y039395D01*
X014001Y039489D01*
X013924Y039566D01*
X013829Y039621D01*
X013724Y039649D01*
D02*
G37*
G36*
X011724D02*
X011615D01*
X01151Y039621D01*
X011415Y039566D01*
X011338Y039489D01*
X011283Y039395D01*
X011255Y039289D01*
Y03918D01*
X011283Y039075D01*
X011338Y038981D01*
X011415Y038904D01*
X01151Y038849D01*
X011615Y038821D01*
X011724D01*
X011829Y038849D01*
X011924Y038904D01*
X012001Y038981D01*
X012055Y039075D01*
X012084Y03918D01*
Y039289D01*
X012055Y039395D01*
X012001Y039489D01*
X011924Y039566D01*
X011829Y039621D01*
X011724Y039649D01*
D02*
G37*
G36*
X010724D02*
X010615D01*
X01051Y039621D01*
X010415Y039566D01*
X010338Y039489D01*
X010283Y039395D01*
X010255Y039289D01*
Y03918D01*
X010283Y039075D01*
X010338Y038981D01*
X010415Y038904D01*
X01051Y038849D01*
X010615Y038821D01*
X010724D01*
X010829Y038849D01*
X010924Y038904D01*
X011001Y038981D01*
X011055Y039075D01*
X011084Y03918D01*
Y039289D01*
X011055Y039395D01*
X011001Y039489D01*
X010924Y039566D01*
X010829Y039621D01*
X010724Y039649D01*
D02*
G37*
G36*
X035724Y039639D02*
X035615D01*
X03551Y039611D01*
X035415Y039557D01*
X035338Y039479D01*
X035283Y039385D01*
X035255Y03928D01*
Y039171D01*
X035283Y039065D01*
X035338Y038971D01*
X035415Y038894D01*
X03551Y038839D01*
X035615Y038811D01*
X035724D01*
X035829Y038839D01*
X035924Y038894D01*
X036001Y038971D01*
X036055Y039065D01*
X036084Y039171D01*
Y03928D01*
X036055Y039385D01*
X036001Y039479D01*
X035924Y039557D01*
X035829Y039611D01*
X035724Y039639D01*
D02*
G37*
G36*
X034724D02*
X034615D01*
X03451Y039611D01*
X034415Y039557D01*
X034338Y039479D01*
X034283Y039385D01*
X034255Y03928D01*
Y039171D01*
X034283Y039065D01*
X034338Y038971D01*
X034415Y038894D01*
X03451Y038839D01*
X034615Y038811D01*
X034724D01*
X034829Y038839D01*
X034924Y038894D01*
X035001Y038971D01*
X035055Y039065D01*
X035084Y039171D01*
Y03928D01*
X035055Y039385D01*
X035001Y039479D01*
X034924Y039557D01*
X034829Y039611D01*
X034724Y039639D01*
D02*
G37*
G36*
X033084Y038649D02*
X032255D01*
Y037821D01*
X033084D01*
Y038649D01*
D02*
G37*
G36*
X031724D02*
X031615D01*
X03151Y038621D01*
X031415Y038566D01*
X031338Y038489D01*
X031283Y038395D01*
X031255Y038289D01*
Y03818D01*
X031283Y038075D01*
X031338Y037981D01*
X031415Y037903D01*
X03151Y037849D01*
X031615Y037821D01*
X031724D01*
X031829Y037849D01*
X031924Y037903D01*
X032001Y037981D01*
X032055Y038075D01*
X032084Y03818D01*
Y038289D01*
X032055Y038395D01*
X032001Y038489D01*
X031924Y038566D01*
X031829Y038621D01*
X031724Y038649D01*
D02*
G37*
G36*
X014724D02*
X014615D01*
X01451Y038621D01*
X014415Y038566D01*
X014338Y038489D01*
X014283Y038395D01*
X014255Y038289D01*
Y03818D01*
X014283Y038075D01*
X014338Y037981D01*
X014415Y037903D01*
X01451Y037849D01*
X014615Y037821D01*
X014724D01*
X014829Y037849D01*
X014924Y037903D01*
X015001Y037981D01*
X015055Y038075D01*
X015084Y03818D01*
Y038289D01*
X015055Y038395D01*
X015001Y038489D01*
X014924Y038566D01*
X014829Y038621D01*
X014724Y038649D01*
D02*
G37*
G36*
X013724D02*
X013615D01*
X01351Y038621D01*
X013415Y038566D01*
X013338Y038489D01*
X013283Y038395D01*
X013255Y038289D01*
Y03818D01*
X013283Y038075D01*
X013338Y037981D01*
X013415Y037903D01*
X01351Y037849D01*
X013615Y037821D01*
X013724D01*
X013829Y037849D01*
X013924Y037903D01*
X014001Y037981D01*
X014055Y038075D01*
X014084Y03818D01*
Y038289D01*
X014055Y038395D01*
X014001Y038489D01*
X013924Y038566D01*
X013829Y038621D01*
X013724Y038649D01*
D02*
G37*
G36*
X011724D02*
X011615D01*
X01151Y038621D01*
X011415Y038566D01*
X011338Y038489D01*
X011283Y038395D01*
X011255Y038289D01*
Y03818D01*
X011283Y038075D01*
X011338Y037981D01*
X011415Y037903D01*
X01151Y037849D01*
X011615Y037821D01*
X011724D01*
X011829Y037849D01*
X011924Y037903D01*
X012001Y037981D01*
X012055Y038075D01*
X012084Y03818D01*
Y038289D01*
X012055Y038395D01*
X012001Y038489D01*
X011924Y038566D01*
X011829Y038621D01*
X011724Y038649D01*
D02*
G37*
G36*
X010724D02*
X010615D01*
X01051Y038621D01*
X010415Y038566D01*
X010338Y038489D01*
X010283Y038395D01*
X010255Y038289D01*
Y03818D01*
X010283Y038075D01*
X010338Y037981D01*
X010415Y037903D01*
X01051Y037849D01*
X010615Y037821D01*
X010724D01*
X010829Y037849D01*
X010924Y037903D01*
X011001Y037981D01*
X011055Y038075D01*
X011084Y03818D01*
Y038289D01*
X011055Y038395D01*
X011001Y038489D01*
X010924Y038566D01*
X010829Y038621D01*
X010724Y038649D01*
D02*
G37*
G36*
X035724Y038639D02*
X035615D01*
X03551Y038611D01*
X035415Y038556D01*
X035338Y038479D01*
X035283Y038385D01*
X035255Y03828D01*
Y038171D01*
X035283Y038065D01*
X035338Y037971D01*
X035415Y037894D01*
X03551Y037839D01*
X035615Y037811D01*
X035724D01*
X035829Y037839D01*
X035924Y037894D01*
X036001Y037971D01*
X036055Y038065D01*
X036084Y038171D01*
Y03828D01*
X036055Y038385D01*
X036001Y038479D01*
X035924Y038556D01*
X035829Y038611D01*
X035724Y038639D01*
D02*
G37*
G36*
X034724D02*
X034615D01*
X03451Y038611D01*
X034415Y038556D01*
X034338Y038479D01*
X034283Y038385D01*
X034255Y03828D01*
Y038171D01*
X034283Y038065D01*
X034338Y037971D01*
X034415Y037894D01*
X03451Y037839D01*
X034615Y037811D01*
X034724D01*
X034829Y037839D01*
X034924Y037894D01*
X035001Y037971D01*
X035055Y038065D01*
X035084Y038171D01*
Y03828D01*
X035055Y038385D01*
X035001Y038479D01*
X034924Y038556D01*
X034829Y038611D01*
X034724Y038639D01*
D02*
G37*
G36*
X032724Y037649D02*
X032615D01*
X03251Y037621D01*
X032415Y037566D01*
X032338Y037489D01*
X032283Y037395D01*
X032255Y037289D01*
Y03718D01*
X032283Y037075D01*
X032338Y036981D01*
X032415Y036904D01*
X03251Y036849D01*
X032615Y036821D01*
X032724D01*
X032829Y036849D01*
X032924Y036904D01*
X033001Y036981D01*
X033055Y037075D01*
X033084Y03718D01*
Y037289D01*
X033055Y037395D01*
X033001Y037489D01*
X032924Y037566D01*
X032829Y037621D01*
X032724Y037649D01*
D02*
G37*
G36*
X031724D02*
X031615D01*
X03151Y037621D01*
X031415Y037566D01*
X031338Y037489D01*
X031283Y037395D01*
X031255Y037289D01*
Y03718D01*
X031283Y037075D01*
X031338Y036981D01*
X031415Y036904D01*
X03151Y036849D01*
X031615Y036821D01*
X031724D01*
X031829Y036849D01*
X031924Y036904D01*
X032001Y036981D01*
X032055Y037075D01*
X032084Y03718D01*
Y037289D01*
X032055Y037395D01*
X032001Y037489D01*
X031924Y037566D01*
X031829Y037621D01*
X031724Y037649D01*
D02*
G37*
G36*
X011724D02*
X011615D01*
X01151Y037621D01*
X011415Y037566D01*
X011338Y037489D01*
X011283Y037395D01*
X011255Y037289D01*
Y03718D01*
X011283Y037075D01*
X011338Y036981D01*
X011415Y036904D01*
X01151Y036849D01*
X011615Y036821D01*
X011724D01*
X011829Y036849D01*
X011924Y036904D01*
X012001Y036981D01*
X012055Y037075D01*
X012084Y03718D01*
Y037289D01*
X012055Y037395D01*
X012001Y037489D01*
X011924Y037566D01*
X011829Y037621D01*
X011724Y037649D01*
D02*
G37*
G36*
X010724D02*
X010615D01*
X01051Y037621D01*
X010415Y037566D01*
X010338Y037489D01*
X010283Y037395D01*
X010255Y037289D01*
Y03718D01*
X010283Y037075D01*
X010338Y036981D01*
X010415Y036904D01*
X01051Y036849D01*
X010615Y036821D01*
X010724D01*
X010829Y036849D01*
X010924Y036904D01*
X011001Y036981D01*
X011055Y037075D01*
X011084Y03718D01*
Y037289D01*
X011055Y037395D01*
X011001Y037489D01*
X010924Y037566D01*
X010829Y037621D01*
X010724Y037649D01*
D02*
G37*
G36*
X035724Y037639D02*
X035615D01*
X03551Y037611D01*
X035415Y037557D01*
X035338Y037479D01*
X035283Y037385D01*
X035255Y03728D01*
Y037171D01*
X035283Y037065D01*
X035338Y036971D01*
X035415Y036894D01*
X03551Y036839D01*
X035615Y036811D01*
X035724D01*
X035829Y036839D01*
X035924Y036894D01*
X036001Y036971D01*
X036055Y037065D01*
X036084Y037171D01*
Y03728D01*
X036055Y037385D01*
X036001Y037479D01*
X035924Y037557D01*
X035829Y037611D01*
X035724Y037639D01*
D02*
G37*
G36*
X034724D02*
X034615D01*
X03451Y037611D01*
X034415Y037557D01*
X034338Y037479D01*
X034283Y037385D01*
X034255Y03728D01*
Y037171D01*
X034283Y037065D01*
X034338Y036971D01*
X034415Y036894D01*
X03451Y036839D01*
X034615Y036811D01*
X034724D01*
X034829Y036839D01*
X034924Y036894D01*
X035001Y036971D01*
X035055Y037065D01*
X035084Y037171D01*
Y03728D01*
X035055Y037385D01*
X035001Y037479D01*
X034924Y037557D01*
X034829Y037611D01*
X034724Y037639D01*
D02*
G37*
G36*
X032724Y036649D02*
X032615D01*
X03251Y036621D01*
X032415Y036566D01*
X032338Y036489D01*
X032283Y036395D01*
X032255Y036289D01*
Y03618D01*
X032283Y036075D01*
X032338Y035981D01*
X032415Y035903D01*
X03251Y035849D01*
X032615Y035821D01*
X032724D01*
X032829Y035849D01*
X032924Y035903D01*
X033001Y035981D01*
X033055Y036075D01*
X033084Y03618D01*
Y036289D01*
X033055Y036395D01*
X033001Y036489D01*
X032924Y036566D01*
X032829Y036621D01*
X032724Y036649D01*
D02*
G37*
G36*
X031724D02*
X031615D01*
X03151Y036621D01*
X031415Y036566D01*
X031338Y036489D01*
X031283Y036395D01*
X031255Y036289D01*
Y03618D01*
X031283Y036075D01*
X031338Y035981D01*
X031415Y035903D01*
X03151Y035849D01*
X031615Y035821D01*
X031724D01*
X031829Y035849D01*
X031924Y035903D01*
X032001Y035981D01*
X032055Y036075D01*
X032084Y03618D01*
Y036289D01*
X032055Y036395D01*
X032001Y036489D01*
X031924Y036566D01*
X031829Y036621D01*
X031724Y036649D01*
D02*
G37*
G36*
X013724D02*
X013615D01*
X01351Y036621D01*
X013415Y036566D01*
X013338Y036489D01*
X013283Y036395D01*
X013255Y036289D01*
Y03618D01*
X013283Y036075D01*
X013338Y035981D01*
X013415Y035903D01*
X01351Y035849D01*
X013615Y035821D01*
X013724D01*
X013829Y035849D01*
X013924Y035903D01*
X014001Y035981D01*
X014055Y036075D01*
X014084Y03618D01*
Y036289D01*
X014055Y036395D01*
X014001Y036489D01*
X013924Y036566D01*
X013829Y036621D01*
X013724Y036649D01*
D02*
G37*
G36*
X011724D02*
X011615D01*
X01151Y036621D01*
X011415Y036566D01*
X011338Y036489D01*
X011283Y036395D01*
X011255Y036289D01*
Y03618D01*
X011283Y036075D01*
X011338Y035981D01*
X011415Y035903D01*
X01151Y035849D01*
X011615Y035821D01*
X011724D01*
X011829Y035849D01*
X011924Y035903D01*
X012001Y035981D01*
X012055Y036075D01*
X012084Y03618D01*
Y036289D01*
X012055Y036395D01*
X012001Y036489D01*
X011924Y036566D01*
X011829Y036621D01*
X011724Y036649D01*
D02*
G37*
G36*
X010724D02*
X010615D01*
X01051Y036621D01*
X010415Y036566D01*
X010338Y036489D01*
X010283Y036395D01*
X010255Y036289D01*
Y03618D01*
X010283Y036075D01*
X010338Y035981D01*
X010415Y035903D01*
X01051Y035849D01*
X010615Y035821D01*
X010724D01*
X010829Y035849D01*
X010924Y035903D01*
X011001Y035981D01*
X011055Y036075D01*
X011084Y03618D01*
Y036289D01*
X011055Y036395D01*
X011001Y036489D01*
X010924Y036566D01*
X010829Y036621D01*
X010724Y036649D01*
D02*
G37*
G36*
X035724Y036639D02*
X035615D01*
X03551Y036611D01*
X035415Y036556D01*
X035338Y036479D01*
X035283Y036385D01*
X035255Y03628D01*
Y036171D01*
X035283Y036065D01*
X035338Y035971D01*
X035415Y035894D01*
X03551Y035839D01*
X035615Y035811D01*
X035724D01*
X035829Y035839D01*
X035924Y035894D01*
X036001Y035971D01*
X036055Y036065D01*
X036084Y036171D01*
Y03628D01*
X036055Y036385D01*
X036001Y036479D01*
X035924Y036556D01*
X035829Y036611D01*
X035724Y036639D01*
D02*
G37*
G36*
X034724D02*
X034615D01*
X03451Y036611D01*
X034415Y036556D01*
X034338Y036479D01*
X034283Y036385D01*
X034255Y03628D01*
Y036171D01*
X034283Y036065D01*
X034338Y035971D01*
X034415Y035894D01*
X03451Y035839D01*
X034615Y035811D01*
X034724D01*
X034829Y035839D01*
X034924Y035894D01*
X035001Y035971D01*
X035055Y036065D01*
X035084Y036171D01*
Y03628D01*
X035055Y036385D01*
X035001Y036479D01*
X034924Y036556D01*
X034829Y036611D01*
X034724Y036639D01*
D02*
G37*
G36*
X032724Y035649D02*
X032615D01*
X03251Y035621D01*
X032415Y035566D01*
X032338Y035489D01*
X032283Y035395D01*
X032255Y035289D01*
Y03518D01*
X032283Y035075D01*
X032338Y034981D01*
X032415Y034904D01*
X03251Y034849D01*
X032615Y034821D01*
X032724D01*
X032829Y034849D01*
X032924Y034904D01*
X033001Y034981D01*
X033055Y035075D01*
X033084Y03518D01*
Y035289D01*
X033055Y035395D01*
X033001Y035489D01*
X032924Y035566D01*
X032829Y035621D01*
X032724Y035649D01*
D02*
G37*
G36*
X031724D02*
X031615D01*
X03151Y035621D01*
X031415Y035566D01*
X031338Y035489D01*
X031283Y035395D01*
X031255Y035289D01*
Y03518D01*
X031283Y035075D01*
X031338Y034981D01*
X031415Y034904D01*
X03151Y034849D01*
X031615Y034821D01*
X031724D01*
X031829Y034849D01*
X031924Y034904D01*
X032001Y034981D01*
X032055Y035075D01*
X032084Y03518D01*
Y035289D01*
X032055Y035395D01*
X032001Y035489D01*
X031924Y035566D01*
X031829Y035621D01*
X031724Y035649D01*
D02*
G37*
G36*
X014724D02*
X014615D01*
X01451Y035621D01*
X014415Y035566D01*
X014338Y035489D01*
X014283Y035395D01*
X014255Y035289D01*
Y03518D01*
X014283Y035075D01*
X014338Y034981D01*
X014415Y034904D01*
X01451Y034849D01*
X014615Y034821D01*
X014724D01*
X014829Y034849D01*
X014924Y034904D01*
X015001Y034981D01*
X015055Y035075D01*
X015084Y03518D01*
Y035289D01*
X015055Y035395D01*
X015001Y035489D01*
X014924Y035566D01*
X014829Y035621D01*
X014724Y035649D01*
D02*
G37*
G36*
X013724D02*
X013615D01*
X01351Y035621D01*
X013415Y035566D01*
X013338Y035489D01*
X013283Y035395D01*
X013255Y035289D01*
Y03518D01*
X013283Y035075D01*
X013338Y034981D01*
X013415Y034904D01*
X01351Y034849D01*
X013615Y034821D01*
X013724D01*
X013829Y034849D01*
X013924Y034904D01*
X014001Y034981D01*
X014055Y035075D01*
X014084Y03518D01*
Y035289D01*
X014055Y035395D01*
X014001Y035489D01*
X013924Y035566D01*
X013829Y035621D01*
X013724Y035649D01*
D02*
G37*
G36*
X011724D02*
X011615D01*
X01151Y035621D01*
X011415Y035566D01*
X011338Y035489D01*
X011283Y035395D01*
X011255Y035289D01*
Y03518D01*
X011283Y035075D01*
X011338Y034981D01*
X011415Y034904D01*
X01151Y034849D01*
X011615Y034821D01*
X011724D01*
X011829Y034849D01*
X011924Y034904D01*
X012001Y034981D01*
X012055Y035075D01*
X012084Y03518D01*
Y035289D01*
X012055Y035395D01*
X012001Y035489D01*
X011924Y035566D01*
X011829Y035621D01*
X011724Y035649D01*
D02*
G37*
G36*
X010724D02*
X010615D01*
X01051Y035621D01*
X010415Y035566D01*
X010338Y035489D01*
X010283Y035395D01*
X010255Y035289D01*
Y03518D01*
X010283Y035075D01*
X010338Y034981D01*
X010415Y034904D01*
X01051Y034849D01*
X010615Y034821D01*
X010724D01*
X010829Y034849D01*
X010924Y034904D01*
X011001Y034981D01*
X011055Y035075D01*
X011084Y03518D01*
Y035289D01*
X011055Y035395D01*
X011001Y035489D01*
X010924Y035566D01*
X010829Y035621D01*
X010724Y035649D01*
D02*
G37*
G36*
X035724Y035639D02*
X035615D01*
X03551Y035611D01*
X035415Y035556D01*
X035338Y035479D01*
X035283Y035385D01*
X035255Y03528D01*
Y035171D01*
X035283Y035065D01*
X035338Y034971D01*
X035415Y034894D01*
X03551Y034839D01*
X035615Y034811D01*
X035724D01*
X035829Y034839D01*
X035924Y034894D01*
X036001Y034971D01*
X036055Y035065D01*
X036084Y035171D01*
Y03528D01*
X036055Y035385D01*
X036001Y035479D01*
X035924Y035556D01*
X035829Y035611D01*
X035724Y035639D01*
D02*
G37*
G36*
X034724D02*
X034615D01*
X03451Y035611D01*
X034415Y035556D01*
X034338Y035479D01*
X034283Y035385D01*
X034255Y03528D01*
Y035171D01*
X034283Y035065D01*
X034338Y034971D01*
X034415Y034894D01*
X03451Y034839D01*
X034615Y034811D01*
X034724D01*
X034829Y034839D01*
X034924Y034894D01*
X035001Y034971D01*
X035055Y035065D01*
X035084Y035171D01*
Y03528D01*
X035055Y035385D01*
X035001Y035479D01*
X034924Y035556D01*
X034829Y035611D01*
X034724Y035639D01*
D02*
G37*
G36*
X014724Y042649D02*
X014615D01*
X01451Y042621D01*
X014415Y042566D01*
X014338Y042489D01*
X014283Y042395D01*
X014255Y042289D01*
Y04218D01*
X014283Y042075D01*
X014338Y041981D01*
X014415Y041904D01*
X01451Y041849D01*
X014615Y041821D01*
X014724D01*
X014829Y041849D01*
X014924Y041904D01*
X015001Y041981D01*
X015055Y042075D01*
X015071Y042133D01*
X019414D01*
X026905Y034642D01*
Y034258D01*
X026873Y034249D01*
X026793Y034203D01*
X026728Y034138D01*
X026682Y034058D01*
X026667Y034003D01*
X026617Y034009D01*
Y034503D01*
X026609Y034542D01*
X026587Y034575D01*
X026168Y034995D01*
X026168Y034995D01*
X019856Y041307D01*
X019823Y041329D01*
X019784Y041337D01*
X015071D01*
X015055Y041395D01*
X015001Y041489D01*
X014924Y041566D01*
X014829Y041621D01*
X014724Y041649D01*
X014615D01*
X01451Y041621D01*
X014415Y041566D01*
X014338Y041489D01*
X014283Y041395D01*
X014255Y041289D01*
Y04118D01*
X014283Y041075D01*
X014338Y040981D01*
X014415Y040904D01*
X01451Y040849D01*
X014615Y040821D01*
X014724D01*
X014829Y040849D01*
X014924Y040904D01*
X015001Y040981D01*
X015055Y041075D01*
X015071Y041133D01*
X019741D01*
X026024Y03485D01*
X026024Y03485D01*
X026413Y034461D01*
Y033416D01*
X026421Y033377D01*
X026443Y033344D01*
X026699Y033088D01*
X026682Y033058D01*
X026658Y032969D01*
Y032878D01*
X026682Y032789D01*
X026728Y032709D01*
X026793Y032644D01*
X026873Y032598D01*
X026961Y032574D01*
X027053D01*
X027142Y032598D01*
X027222Y032644D01*
X027287Y032709D01*
X027333Y032789D01*
X027357Y032878D01*
Y032969D01*
X027333Y033058D01*
X027287Y033138D01*
X027222Y033203D01*
X027142Y033249D01*
X027053Y033273D01*
X026961D01*
X026873Y033249D01*
X026843Y033232D01*
X026617Y033458D01*
Y033838D01*
X026667Y033844D01*
X026682Y033789D01*
X026728Y033709D01*
X026793Y033644D01*
X026873Y033598D01*
X026961Y033574D01*
X027053D01*
X027142Y033598D01*
X027222Y033644D01*
X027287Y033709D01*
X027333Y033789D01*
X027357Y033878D01*
Y033969D01*
X027333Y034058D01*
X027287Y034138D01*
X027222Y034203D01*
X027142Y034249D01*
X027109Y034258D01*
Y034684D01*
X027102Y034723D01*
X027079Y034756D01*
X019529Y042307D01*
X019496Y042329D01*
X019457Y042337D01*
X015071D01*
X015055Y042395D01*
X015001Y042489D01*
X014924Y042566D01*
X014829Y042621D01*
X014724Y042649D01*
D02*
G37*
G36*
X032724Y034649D02*
X032615D01*
X03251Y034621D01*
X032415Y034566D01*
X032338Y034489D01*
X032283Y034395D01*
X032255Y034289D01*
Y03418D01*
X032283Y034075D01*
X032338Y033981D01*
X032415Y033904D01*
X03251Y033849D01*
X032615Y033821D01*
X032724D01*
X032829Y033849D01*
X032924Y033904D01*
X033001Y033981D01*
X033055Y034075D01*
X033084Y03418D01*
Y034289D01*
X033055Y034395D01*
X033001Y034489D01*
X032924Y034566D01*
X032829Y034621D01*
X032724Y034649D01*
D02*
G37*
G36*
X031724D02*
X031615D01*
X03151Y034621D01*
X031415Y034566D01*
X031338Y034489D01*
X031283Y034395D01*
X031255Y034289D01*
Y03418D01*
X031283Y034075D01*
X031338Y033981D01*
X031415Y033904D01*
X03151Y033849D01*
X031615Y033821D01*
X031724D01*
X031829Y033849D01*
X031924Y033904D01*
X032001Y033981D01*
X032055Y034075D01*
X032084Y03418D01*
Y034289D01*
X032055Y034395D01*
X032001Y034489D01*
X031924Y034566D01*
X031829Y034621D01*
X031724Y034649D01*
D02*
G37*
G36*
X014724D02*
X014615D01*
X01451Y034621D01*
X014415Y034566D01*
X014338Y034489D01*
X014283Y034395D01*
X014255Y034289D01*
Y03418D01*
X014283Y034075D01*
X014338Y033981D01*
X014415Y033904D01*
X01451Y033849D01*
X014615Y033821D01*
X014724D01*
X014829Y033849D01*
X014924Y033904D01*
X015001Y033981D01*
X015055Y034075D01*
X015084Y03418D01*
Y034289D01*
X015055Y034395D01*
X015001Y034489D01*
X014924Y034566D01*
X014829Y034621D01*
X014724Y034649D01*
D02*
G37*
G36*
X013724D02*
X013615D01*
X01351Y034621D01*
X013415Y034566D01*
X013338Y034489D01*
X013283Y034395D01*
X013255Y034289D01*
Y03418D01*
X013283Y034075D01*
X013338Y033981D01*
X013415Y033904D01*
X01351Y033849D01*
X013615Y033821D01*
X013724D01*
X013829Y033849D01*
X013924Y033904D01*
X014001Y033981D01*
X014055Y034075D01*
X014084Y03418D01*
Y034289D01*
X014055Y034395D01*
X014001Y034489D01*
X013924Y034566D01*
X013829Y034621D01*
X013724Y034649D01*
D02*
G37*
G36*
X011724D02*
X011615D01*
X01151Y034621D01*
X011415Y034566D01*
X011338Y034489D01*
X011283Y034395D01*
X011255Y034289D01*
Y03418D01*
X011283Y034075D01*
X011338Y033981D01*
X011415Y033904D01*
X01151Y033849D01*
X011615Y033821D01*
X011724D01*
X011829Y033849D01*
X011924Y033904D01*
X012001Y033981D01*
X012055Y034075D01*
X012084Y03418D01*
Y034289D01*
X012055Y034395D01*
X012001Y034489D01*
X011924Y034566D01*
X011829Y034621D01*
X011724Y034649D01*
D02*
G37*
G36*
X010724D02*
X010615D01*
X01051Y034621D01*
X010415Y034566D01*
X010338Y034489D01*
X010283Y034395D01*
X010255Y034289D01*
Y03418D01*
X010283Y034075D01*
X010338Y033981D01*
X010415Y033904D01*
X01051Y033849D01*
X010615Y033821D01*
X010724D01*
X010829Y033849D01*
X010924Y033904D01*
X011001Y033981D01*
X011055Y034075D01*
X011084Y03418D01*
Y034289D01*
X011055Y034395D01*
X011001Y034489D01*
X010924Y034566D01*
X010829Y034621D01*
X010724Y034649D01*
D02*
G37*
G36*
X035724Y034639D02*
X035615D01*
X03551Y034611D01*
X035415Y034557D01*
X035338Y034479D01*
X035283Y034385D01*
X035255Y03428D01*
Y034171D01*
X035283Y034065D01*
X035338Y033971D01*
X035415Y033894D01*
X03551Y033839D01*
X035615Y033811D01*
X035724D01*
X035829Y033839D01*
X035924Y033894D01*
X036001Y033971D01*
X036055Y034065D01*
X036084Y034171D01*
Y03428D01*
X036055Y034385D01*
X036001Y034479D01*
X035924Y034557D01*
X035829Y034611D01*
X035724Y034639D01*
D02*
G37*
G36*
X034724D02*
X034615D01*
X03451Y034611D01*
X034415Y034557D01*
X034338Y034479D01*
X034283Y034385D01*
X034255Y03428D01*
Y034171D01*
X034283Y034065D01*
X034338Y033971D01*
X034415Y033894D01*
X03451Y033839D01*
X034615Y033811D01*
X034724D01*
X034829Y033839D01*
X034924Y033894D01*
X035001Y033971D01*
X035055Y034065D01*
X035084Y034171D01*
Y03428D01*
X035055Y034385D01*
X035001Y034479D01*
X034924Y034557D01*
X034829Y034611D01*
X034724Y034639D01*
D02*
G37*
G36*
X026053Y034273D02*
X025961D01*
X025873Y034249D01*
X025793Y034203D01*
X025728Y034138D01*
X025682Y034058D01*
X025658Y033969D01*
Y033878D01*
X025682Y033789D01*
X025728Y033709D01*
X025793Y033644D01*
X025873Y033598D01*
X025961Y033574D01*
X026053D01*
X026142Y033598D01*
X026222Y033644D01*
X026287Y033709D01*
X026333Y033789D01*
X026357Y033878D01*
Y033969D01*
X026333Y034058D01*
X026287Y034138D01*
X026222Y034203D01*
X026142Y034249D01*
X026053Y034273D01*
D02*
G37*
G36*
X025053D02*
X024961D01*
X024873Y034249D01*
X024793Y034203D01*
X024728Y034138D01*
X024682Y034058D01*
X024658Y033969D01*
Y033878D01*
X024682Y033789D01*
X024728Y033709D01*
X024793Y033644D01*
X024873Y033598D01*
X024961Y033574D01*
X025053D01*
X025142Y033598D01*
X025222Y033644D01*
X025287Y033709D01*
X025333Y033789D01*
X025357Y033878D01*
Y033969D01*
X025333Y034058D01*
X025287Y034138D01*
X025222Y034203D01*
X025142Y034249D01*
X025053Y034273D01*
D02*
G37*
G36*
X024053D02*
X023961D01*
X023873Y034249D01*
X023793Y034203D01*
X023728Y034138D01*
X023682Y034058D01*
X023658Y033969D01*
Y033878D01*
X023682Y033789D01*
X023728Y033709D01*
X023793Y033644D01*
X023873Y033598D01*
X023961Y033574D01*
X024053D01*
X024142Y033598D01*
X024222Y033644D01*
X024287Y033709D01*
X024333Y033789D01*
X024357Y033878D01*
Y033969D01*
X024333Y034058D01*
X024287Y034138D01*
X024222Y034203D01*
X024142Y034249D01*
X024053Y034273D01*
D02*
G37*
G36*
X023053D02*
X022961D01*
X022873Y034249D01*
X022793Y034203D01*
X022728Y034138D01*
X022682Y034058D01*
X022658Y033969D01*
Y033878D01*
X022682Y033789D01*
X022728Y033709D01*
X022793Y033644D01*
X022873Y033598D01*
X022961Y033574D01*
X023053D01*
X023142Y033598D01*
X023222Y033644D01*
X023287Y033709D01*
X023333Y033789D01*
X023357Y033878D01*
Y033969D01*
X023333Y034058D01*
X023287Y034138D01*
X023222Y034203D01*
X023142Y034249D01*
X023053Y034273D01*
D02*
G37*
G36*
X022053D02*
X021961D01*
X021873Y034249D01*
X021793Y034203D01*
X021728Y034138D01*
X021682Y034058D01*
X021658Y033969D01*
Y033878D01*
X021682Y033789D01*
X021728Y033709D01*
X021793Y033644D01*
X021873Y033598D01*
X021961Y033574D01*
X022053D01*
X022142Y033598D01*
X022222Y033644D01*
X022287Y033709D01*
X022333Y033789D01*
X022357Y033878D01*
Y033969D01*
X022333Y034058D01*
X022287Y034138D01*
X022222Y034203D01*
X022142Y034249D01*
X022053Y034273D01*
D02*
G37*
G36*
X021053D02*
X020961D01*
X020873Y034249D01*
X020793Y034203D01*
X020728Y034138D01*
X020682Y034058D01*
X020658Y033969D01*
Y033878D01*
X020682Y033789D01*
X020728Y033709D01*
X020793Y033644D01*
X020873Y033598D01*
X020961Y033574D01*
X021053D01*
X021142Y033598D01*
X021222Y033644D01*
X021287Y033709D01*
X021333Y033789D01*
X021357Y033878D01*
Y033969D01*
X021333Y034058D01*
X021287Y034138D01*
X021222Y034203D01*
X021142Y034249D01*
X021053Y034273D01*
D02*
G37*
G36*
X020053D02*
X019961D01*
X019873Y034249D01*
X019793Y034203D01*
X019728Y034138D01*
X019682Y034058D01*
X019658Y033969D01*
Y033878D01*
X019682Y033789D01*
X019699Y033759D01*
X019536Y033596D01*
X019514Y033563D01*
X019506Y033524D01*
Y03217D01*
X019514Y032131D01*
X019536Y032098D01*
X020962Y030672D01*
X020995Y03065D01*
X021034Y030642D01*
X031446D01*
X03146Y030592D01*
X031415Y030566D01*
X031338Y030489D01*
X031283Y030395D01*
X031255Y030289D01*
Y03018D01*
X031283Y030075D01*
X031338Y029981D01*
X031415Y029904D01*
X03151Y029849D01*
X031615Y029821D01*
X031724D01*
X031829Y029849D01*
X031924Y029904D01*
X032001Y029981D01*
X032055Y030075D01*
X032084Y03018D01*
Y030289D01*
X032055Y030395D01*
X032001Y030489D01*
X031924Y030566D01*
X031879Y030592D01*
X031892Y030642D01*
X032205D01*
X032244Y03065D01*
X032277Y030672D01*
X032474Y030869D01*
X03251Y030849D01*
X032615Y030821D01*
X032724D01*
X032829Y030849D01*
X032924Y030903D01*
X033001Y030981D01*
X033055Y031075D01*
X033084Y03118D01*
Y031289D01*
X033055Y031395D01*
X033001Y031489D01*
X032924Y031566D01*
X032829Y031621D01*
X032724Y031649D01*
X032615D01*
X03251Y031621D01*
X032415Y031566D01*
X032338Y031489D01*
X032283Y031395D01*
X032255Y031289D01*
Y03118D01*
X032283Y031075D01*
X032323Y031007D01*
X032162Y030846D01*
X031924D01*
X031911Y030896D01*
X031924Y030903D01*
X032001Y030981D01*
X032055Y031075D01*
X032084Y03118D01*
Y031289D01*
X032055Y031395D01*
X032001Y031489D01*
X031924Y031566D01*
X031873Y031595D01*
X031887Y031646D01*
X032182D01*
X032221Y031653D01*
X032254Y031675D01*
X032458Y031879D01*
X03251Y031849D01*
X032615Y031821D01*
X032724D01*
X032829Y031849D01*
X032924Y031904D01*
X033001Y031981D01*
X033055Y032075D01*
X033084Y03218D01*
Y032289D01*
X033055Y032395D01*
X033001Y032489D01*
X032924Y032566D01*
X032829Y032621D01*
X032724Y032649D01*
X032615D01*
X03251Y032621D01*
X032415Y032566D01*
X032338Y032489D01*
X032283Y032395D01*
X032255Y032289D01*
Y03218D01*
X032283Y032075D01*
X032313Y032023D01*
X03214Y031849D01*
X031927D01*
X031914Y031898D01*
X031924Y031904D01*
X032001Y031981D01*
X032055Y032075D01*
X032084Y03218D01*
Y032289D01*
X032055Y032395D01*
X032001Y032489D01*
X031924Y032566D01*
X031829Y032621D01*
X031724Y032649D01*
X031615D01*
X03151Y032621D01*
X031415Y032566D01*
X031338Y032489D01*
X031283Y032395D01*
X031255Y032289D01*
Y03218D01*
X031283Y032075D01*
X031338Y031981D01*
X031415Y031904D01*
X031425Y031898D01*
X031412Y031849D01*
X020695D01*
X020109Y032435D01*
Y032589D01*
X020142Y032598D01*
X020222Y032644D01*
X020287Y032709D01*
X020333Y032789D01*
X020357Y032878D01*
Y032969D01*
X020333Y033058D01*
X020287Y033138D01*
X020222Y033203D01*
X020142Y033249D01*
X020053Y033273D01*
X019961D01*
X019873Y033249D01*
X019793Y033203D01*
X01976Y03317D01*
X01971Y033191D01*
Y033482D01*
X019843Y033615D01*
X019873Y033598D01*
X019961Y033574D01*
X020053D01*
X020142Y033598D01*
X020222Y033644D01*
X020287Y033709D01*
X020333Y033789D01*
X020357Y033878D01*
Y033969D01*
X020333Y034058D01*
X020287Y034138D01*
X020222Y034203D01*
X020142Y034249D01*
X020053Y034273D01*
D02*
G37*
G36*
X019357D02*
X018658D01*
Y033574D01*
X019357D01*
Y034273D01*
D02*
G37*
G36*
X032724Y033649D02*
X032615D01*
X03251Y033621D01*
X032415Y033566D01*
X032338Y033489D01*
X032283Y033395D01*
X032255Y033289D01*
Y03318D01*
X032283Y033075D01*
X032338Y032981D01*
X032415Y032903D01*
X03251Y032849D01*
X032615Y032821D01*
X032724D01*
X032829Y032849D01*
X032924Y032903D01*
X033001Y032981D01*
X033055Y033075D01*
X033084Y03318D01*
Y033289D01*
X033055Y033395D01*
X033001Y033489D01*
X032924Y033566D01*
X032829Y033621D01*
X032724Y033649D01*
D02*
G37*
G36*
X031724D02*
X031615D01*
X03151Y033621D01*
X031415Y033566D01*
X031338Y033489D01*
X031283Y033395D01*
X031255Y033289D01*
Y03318D01*
X031283Y033075D01*
X031338Y032981D01*
X031415Y032903D01*
X03151Y032849D01*
X031615Y032821D01*
X031724D01*
X031829Y032849D01*
X031924Y032903D01*
X032001Y032981D01*
X032055Y033075D01*
X032084Y03318D01*
Y033289D01*
X032055Y033395D01*
X032001Y033489D01*
X031924Y033566D01*
X031829Y033621D01*
X031724Y033649D01*
D02*
G37*
G36*
X014724D02*
X014615D01*
X01451Y033621D01*
X014415Y033566D01*
X014338Y033489D01*
X014283Y033395D01*
X014255Y033289D01*
Y03318D01*
X014283Y033075D01*
X014338Y032981D01*
X014415Y032903D01*
X01451Y032849D01*
X014615Y032821D01*
X014724D01*
X014829Y032849D01*
X014924Y032903D01*
X015001Y032981D01*
X015055Y033075D01*
X015084Y03318D01*
Y033289D01*
X015055Y033395D01*
X015001Y033489D01*
X014924Y033566D01*
X014829Y033621D01*
X014724Y033649D01*
D02*
G37*
G36*
X013724D02*
X013615D01*
X01351Y033621D01*
X013415Y033566D01*
X013338Y033489D01*
X013283Y033395D01*
X013255Y033289D01*
Y03318D01*
X013283Y033075D01*
X013338Y032981D01*
X013415Y032903D01*
X01351Y032849D01*
X013615Y032821D01*
X013724D01*
X013829Y032849D01*
X013924Y032903D01*
X014001Y032981D01*
X014055Y033075D01*
X014084Y03318D01*
Y033289D01*
X014055Y033395D01*
X014001Y033489D01*
X013924Y033566D01*
X013829Y033621D01*
X013724Y033649D01*
D02*
G37*
G36*
X011724D02*
X011615D01*
X01151Y033621D01*
X011415Y033566D01*
X011338Y033489D01*
X011283Y033395D01*
X011255Y033289D01*
Y03318D01*
X011283Y033075D01*
X011338Y032981D01*
X011415Y032903D01*
X01151Y032849D01*
X011615Y032821D01*
X011724D01*
X011829Y032849D01*
X011924Y032903D01*
X012001Y032981D01*
X012055Y033075D01*
X012084Y03318D01*
Y033289D01*
X012055Y033395D01*
X012001Y033489D01*
X011924Y033566D01*
X011829Y033621D01*
X011724Y033649D01*
D02*
G37*
G36*
X010724D02*
X010615D01*
X01051Y033621D01*
X010415Y033566D01*
X010338Y033489D01*
X010283Y033395D01*
X010255Y033289D01*
Y03318D01*
X010283Y033075D01*
X010338Y032981D01*
X010415Y032903D01*
X01051Y032849D01*
X010615Y032821D01*
X010724D01*
X010829Y032849D01*
X010924Y032903D01*
X011001Y032981D01*
X011055Y033075D01*
X011084Y03318D01*
Y033289D01*
X011055Y033395D01*
X011001Y033489D01*
X010924Y033566D01*
X010829Y033621D01*
X010724Y033649D01*
D02*
G37*
G36*
X035724Y033639D02*
X035615D01*
X03551Y033611D01*
X035415Y033556D01*
X035338Y033479D01*
X035283Y033385D01*
X035255Y03328D01*
Y033171D01*
X035283Y033065D01*
X035338Y032971D01*
X035415Y032894D01*
X03551Y032839D01*
X035615Y032811D01*
X035724D01*
X035829Y032839D01*
X035924Y032894D01*
X036001Y032971D01*
X036055Y033065D01*
X036084Y033171D01*
Y03328D01*
X036055Y033385D01*
X036001Y033479D01*
X035924Y033556D01*
X035829Y033611D01*
X035724Y033639D01*
D02*
G37*
G36*
X034724D02*
X034615D01*
X03451Y033611D01*
X034415Y033556D01*
X034338Y033479D01*
X034283Y033385D01*
X034255Y03328D01*
Y033171D01*
X034283Y033065D01*
X034338Y032971D01*
X034415Y032894D01*
X03451Y032839D01*
X034615Y032811D01*
X034724D01*
X034829Y032839D01*
X034924Y032894D01*
X035001Y032971D01*
X035055Y033065D01*
X035084Y033171D01*
Y03328D01*
X035055Y033385D01*
X035001Y033479D01*
X034924Y033556D01*
X034829Y033611D01*
X034724Y033639D01*
D02*
G37*
G36*
X026053Y033273D02*
X025961D01*
X025873Y033249D01*
X025793Y033203D01*
X025728Y033138D01*
X025682Y033058D01*
X025658Y032969D01*
Y032878D01*
X025682Y032789D01*
X025728Y032709D01*
X025793Y032644D01*
X025873Y032598D01*
X025961Y032574D01*
X026053D01*
X026142Y032598D01*
X026222Y032644D01*
X026287Y032709D01*
X026333Y032789D01*
X026357Y032878D01*
Y032969D01*
X026333Y033058D01*
X026287Y033138D01*
X026222Y033203D01*
X026142Y033249D01*
X026053Y033273D01*
D02*
G37*
G36*
X025053D02*
X024961D01*
X024873Y033249D01*
X024793Y033203D01*
X024728Y033138D01*
X024682Y033058D01*
X024658Y032969D01*
Y032878D01*
X024682Y032789D01*
X024728Y032709D01*
X024793Y032644D01*
X024873Y032598D01*
X024961Y032574D01*
X025053D01*
X025142Y032598D01*
X025222Y032644D01*
X025287Y032709D01*
X025333Y032789D01*
X025357Y032878D01*
Y032969D01*
X025333Y033058D01*
X025287Y033138D01*
X025222Y033203D01*
X025142Y033249D01*
X025053Y033273D01*
D02*
G37*
G36*
X024053D02*
X023961D01*
X023873Y033249D01*
X023793Y033203D01*
X023728Y033138D01*
X023682Y033058D01*
X023658Y032969D01*
Y032878D01*
X023682Y032789D01*
X023728Y032709D01*
X023793Y032644D01*
X023873Y032598D01*
X023961Y032574D01*
X024053D01*
X024142Y032598D01*
X024222Y032644D01*
X024287Y032709D01*
X024333Y032789D01*
X024357Y032878D01*
Y032969D01*
X024333Y033058D01*
X024287Y033138D01*
X024222Y033203D01*
X024142Y033249D01*
X024053Y033273D01*
D02*
G37*
G36*
X023053D02*
X022961D01*
X022873Y033249D01*
X022793Y033203D01*
X022728Y033138D01*
X022682Y033058D01*
X022658Y032969D01*
Y032878D01*
X022682Y032789D01*
X022728Y032709D01*
X022793Y032644D01*
X022873Y032598D01*
X022961Y032574D01*
X023053D01*
X023142Y032598D01*
X023222Y032644D01*
X023287Y032709D01*
X023333Y032789D01*
X023357Y032878D01*
Y032969D01*
X023333Y033058D01*
X023287Y033138D01*
X023222Y033203D01*
X023142Y033249D01*
X023053Y033273D01*
D02*
G37*
G36*
X022053D02*
X021961D01*
X021873Y033249D01*
X021793Y033203D01*
X021728Y033138D01*
X021682Y033058D01*
X021658Y032969D01*
Y032878D01*
X021682Y032789D01*
X021728Y032709D01*
X021793Y032644D01*
X021873Y032598D01*
X021961Y032574D01*
X022053D01*
X022142Y032598D01*
X022222Y032644D01*
X022287Y032709D01*
X022333Y032789D01*
X022357Y032878D01*
Y032969D01*
X022333Y033058D01*
X022287Y033138D01*
X022222Y033203D01*
X022142Y033249D01*
X022053Y033273D01*
D02*
G37*
G36*
X021053D02*
X020961D01*
X020873Y033249D01*
X020793Y033203D01*
X020728Y033138D01*
X020682Y033058D01*
X020658Y032969D01*
Y032878D01*
X020682Y032789D01*
X020728Y032709D01*
X020793Y032644D01*
X020873Y032598D01*
X020961Y032574D01*
X021053D01*
X021142Y032598D01*
X021222Y032644D01*
X021287Y032709D01*
X021333Y032789D01*
X021357Y032878D01*
Y032969D01*
X021333Y033058D01*
X021287Y033138D01*
X021222Y033203D01*
X021142Y033249D01*
X021053Y033273D01*
D02*
G37*
G36*
X014724Y032649D02*
X014615D01*
X01451Y032621D01*
X014415Y032566D01*
X014338Y032489D01*
X014283Y032395D01*
X014255Y032289D01*
Y03218D01*
X014283Y032075D01*
X014338Y031981D01*
X014415Y031904D01*
X01451Y031849D01*
X014615Y031821D01*
X014724D01*
X014829Y031849D01*
X014924Y031904D01*
X015001Y031981D01*
X015055Y032075D01*
X015084Y03218D01*
Y032289D01*
X015055Y032395D01*
X015001Y032489D01*
X014924Y032566D01*
X014829Y032621D01*
X014724Y032649D01*
D02*
G37*
G36*
X013724D02*
X013615D01*
X01351Y032621D01*
X013415Y032566D01*
X013338Y032489D01*
X013283Y032395D01*
X013255Y032289D01*
Y03218D01*
X013283Y032075D01*
X013338Y031981D01*
X013415Y031904D01*
X01351Y031849D01*
X013615Y031821D01*
X013724D01*
X013829Y031849D01*
X013924Y031904D01*
X014001Y031981D01*
X014055Y032075D01*
X014084Y03218D01*
Y032289D01*
X014055Y032395D01*
X014001Y032489D01*
X013924Y032566D01*
X013829Y032621D01*
X013724Y032649D01*
D02*
G37*
G36*
X011724D02*
X011615D01*
X01151Y032621D01*
X011415Y032566D01*
X011338Y032489D01*
X011283Y032395D01*
X011255Y032289D01*
Y03218D01*
X011283Y032075D01*
X011338Y031981D01*
X011415Y031904D01*
X01151Y031849D01*
X011615Y031821D01*
X011724D01*
X011829Y031849D01*
X011924Y031904D01*
X012001Y031981D01*
X012055Y032075D01*
X012084Y03218D01*
Y032289D01*
X012055Y032395D01*
X012001Y032489D01*
X011924Y032566D01*
X011829Y032621D01*
X011724Y032649D01*
D02*
G37*
G36*
X010724D02*
X010615D01*
X01051Y032621D01*
X010415Y032566D01*
X010338Y032489D01*
X010283Y032395D01*
X010255Y032289D01*
Y03218D01*
X010283Y032075D01*
X010338Y031981D01*
X010415Y031904D01*
X01051Y031849D01*
X010615Y031821D01*
X010724D01*
X010829Y031849D01*
X010924Y031904D01*
X011001Y031981D01*
X011055Y032075D01*
X011084Y03218D01*
Y032289D01*
X011055Y032395D01*
X011001Y032489D01*
X010924Y032566D01*
X010829Y032621D01*
X010724Y032649D01*
D02*
G37*
G36*
X035724Y032639D02*
X035615D01*
X03551Y032611D01*
X035415Y032557D01*
X035338Y032479D01*
X035283Y032385D01*
X035255Y03228D01*
Y032171D01*
X035283Y032065D01*
X035338Y031971D01*
X035415Y031894D01*
X03551Y031839D01*
X035615Y031811D01*
X035724D01*
X035829Y031839D01*
X035924Y031894D01*
X036001Y031971D01*
X036055Y032065D01*
X036084Y032171D01*
Y03228D01*
X036055Y032385D01*
X036001Y032479D01*
X035924Y032557D01*
X035829Y032611D01*
X035724Y032639D01*
D02*
G37*
G36*
X034724D02*
X034615D01*
X03451Y032611D01*
X034415Y032557D01*
X034338Y032479D01*
X034283Y032385D01*
X034255Y03228D01*
Y032171D01*
X034283Y032065D01*
X034338Y031971D01*
X034415Y031894D01*
X03451Y031839D01*
X034615Y031811D01*
X034724D01*
X034829Y031839D01*
X034924Y031894D01*
X035001Y031971D01*
X035055Y032065D01*
X035084Y032171D01*
Y03228D01*
X035055Y032385D01*
X035001Y032479D01*
X034924Y032557D01*
X034829Y032611D01*
X034724Y032639D01*
D02*
G37*
G36*
X014724Y031649D02*
X014615D01*
X01451Y031621D01*
X014415Y031566D01*
X014338Y031489D01*
X014283Y031395D01*
X014255Y031289D01*
Y03118D01*
X014283Y031075D01*
X014338Y030981D01*
X014415Y030903D01*
X01451Y030849D01*
X014615Y030821D01*
X014724D01*
X014829Y030849D01*
X014924Y030903D01*
X015001Y030981D01*
X015055Y031075D01*
X015084Y03118D01*
Y031289D01*
X015055Y031395D01*
X015001Y031489D01*
X014924Y031566D01*
X014829Y031621D01*
X014724Y031649D01*
D02*
G37*
G36*
X013724D02*
X013615D01*
X01351Y031621D01*
X013415Y031566D01*
X013338Y031489D01*
X013283Y031395D01*
X013255Y031289D01*
Y03118D01*
X013283Y031075D01*
X013338Y030981D01*
X013415Y030903D01*
X01351Y030849D01*
X013615Y030821D01*
X013724D01*
X013829Y030849D01*
X013924Y030903D01*
X014001Y030981D01*
X014055Y031075D01*
X014084Y03118D01*
Y031289D01*
X014055Y031395D01*
X014001Y031489D01*
X013924Y031566D01*
X013829Y031621D01*
X013724Y031649D01*
D02*
G37*
G36*
X011724D02*
X011615D01*
X01151Y031621D01*
X011415Y031566D01*
X011338Y031489D01*
X011283Y031395D01*
X011255Y031289D01*
Y03118D01*
X011283Y031075D01*
X011338Y030981D01*
X011415Y030903D01*
X01151Y030849D01*
X011615Y030821D01*
X011724D01*
X011829Y030849D01*
X011924Y030903D01*
X012001Y030981D01*
X012055Y031075D01*
X012084Y03118D01*
Y031289D01*
X012055Y031395D01*
X012001Y031489D01*
X011924Y031566D01*
X011829Y031621D01*
X011724Y031649D01*
D02*
G37*
G36*
X010724D02*
X010615D01*
X01051Y031621D01*
X010415Y031566D01*
X010338Y031489D01*
X010283Y031395D01*
X010255Y031289D01*
Y03118D01*
X010283Y031075D01*
X010338Y030981D01*
X010415Y030903D01*
X01051Y030849D01*
X010615Y030821D01*
X010724D01*
X010829Y030849D01*
X010924Y030903D01*
X011001Y030981D01*
X011055Y031075D01*
X011084Y03118D01*
Y031289D01*
X011055Y031395D01*
X011001Y031489D01*
X010924Y031566D01*
X010829Y031621D01*
X010724Y031649D01*
D02*
G37*
G36*
X035724Y031639D02*
X035615D01*
X03551Y031611D01*
X035415Y031556D01*
X035338Y031479D01*
X035283Y031385D01*
X035255Y03128D01*
Y031171D01*
X035283Y031065D01*
X035338Y030971D01*
X035415Y030894D01*
X03551Y030839D01*
X035615Y030811D01*
X035724D01*
X035829Y030839D01*
X035924Y030894D01*
X036001Y030971D01*
X036055Y031065D01*
X036084Y031171D01*
Y03128D01*
X036055Y031385D01*
X036001Y031479D01*
X035924Y031556D01*
X035829Y031611D01*
X035724Y031639D01*
D02*
G37*
G36*
X034724D02*
X034615D01*
X03451Y031611D01*
X034415Y031556D01*
X034338Y031479D01*
X034283Y031385D01*
X034255Y03128D01*
Y031171D01*
X034283Y031065D01*
X034338Y030971D01*
X034415Y030894D01*
X03451Y030839D01*
X034615Y030811D01*
X034724D01*
X034829Y030839D01*
X034924Y030894D01*
X035001Y030971D01*
X035055Y031065D01*
X035084Y031171D01*
Y03128D01*
X035055Y031385D01*
X035001Y031479D01*
X034924Y031556D01*
X034829Y031611D01*
X034724Y031639D01*
D02*
G37*
G36*
X032724Y030649D02*
X032615D01*
X03251Y030621D01*
X032415Y030566D01*
X032338Y030489D01*
X032283Y030395D01*
X032255Y030289D01*
Y03018D01*
X032283Y030075D01*
X032338Y029981D01*
X032415Y029904D01*
X03251Y029849D01*
X032615Y029821D01*
X032724D01*
X032829Y029849D01*
X032924Y029904D01*
X033001Y029981D01*
X033055Y030075D01*
X033084Y03018D01*
Y030289D01*
X033055Y030395D01*
X033001Y030489D01*
X032924Y030566D01*
X032829Y030621D01*
X032724Y030649D01*
D02*
G37*
G36*
X014724D02*
X014615D01*
X01451Y030621D01*
X014415Y030566D01*
X014338Y030489D01*
X014283Y030395D01*
X014255Y030289D01*
Y03018D01*
X014283Y030075D01*
X014338Y029981D01*
X014415Y029904D01*
X01451Y029849D01*
X014615Y029821D01*
X014724D01*
X014829Y029849D01*
X014924Y029904D01*
X015001Y029981D01*
X015055Y030075D01*
X015084Y03018D01*
Y030289D01*
X015055Y030395D01*
X015001Y030489D01*
X014924Y030566D01*
X014829Y030621D01*
X014724Y030649D01*
D02*
G37*
G36*
X013724D02*
X013615D01*
X01351Y030621D01*
X013415Y030566D01*
X013338Y030489D01*
X013283Y030395D01*
X013255Y030289D01*
Y03018D01*
X013283Y030075D01*
X013338Y029981D01*
X013415Y029904D01*
X01351Y029849D01*
X013615Y029821D01*
X013724D01*
X013829Y029849D01*
X013924Y029904D01*
X014001Y029981D01*
X014055Y030075D01*
X014084Y03018D01*
Y030289D01*
X014055Y030395D01*
X014001Y030489D01*
X013924Y030566D01*
X013829Y030621D01*
X013724Y030649D01*
D02*
G37*
G36*
X011724D02*
X011615D01*
X01151Y030621D01*
X011415Y030566D01*
X011338Y030489D01*
X011283Y030395D01*
X011255Y030289D01*
Y03018D01*
X011283Y030075D01*
X011338Y029981D01*
X011415Y029904D01*
X01151Y029849D01*
X011615Y029821D01*
X011724D01*
X011829Y029849D01*
X011924Y029904D01*
X012001Y029981D01*
X012055Y030075D01*
X012084Y03018D01*
Y030289D01*
X012055Y030395D01*
X012001Y030489D01*
X011924Y030566D01*
X011829Y030621D01*
X011724Y030649D01*
D02*
G37*
G36*
X010724D02*
X010615D01*
X01051Y030621D01*
X010415Y030566D01*
X010338Y030489D01*
X010283Y030395D01*
X010255Y030289D01*
Y03018D01*
X010283Y030075D01*
X010338Y029981D01*
X010415Y029904D01*
X01051Y029849D01*
X010615Y029821D01*
X010724D01*
X010829Y029849D01*
X010924Y029904D01*
X011001Y029981D01*
X011055Y030075D01*
X011084Y03018D01*
Y030289D01*
X011055Y030395D01*
X011001Y030489D01*
X010924Y030566D01*
X010829Y030621D01*
X010724Y030649D01*
D02*
G37*
G36*
X035724Y030639D02*
X035615D01*
X03551Y030611D01*
X035415Y030556D01*
X035338Y030479D01*
X035283Y030385D01*
X035255Y03028D01*
Y030171D01*
X035283Y030065D01*
X035338Y029971D01*
X035415Y029894D01*
X03551Y029839D01*
X035615Y029811D01*
X035724D01*
X035829Y029839D01*
X035924Y029894D01*
X036001Y029971D01*
X036055Y030065D01*
X036084Y030171D01*
Y03028D01*
X036055Y030385D01*
X036001Y030479D01*
X035924Y030556D01*
X035829Y030611D01*
X035724Y030639D01*
D02*
G37*
G36*
X034724D02*
X034615D01*
X03451Y030611D01*
X034415Y030556D01*
X034338Y030479D01*
X034283Y030385D01*
X034255Y03028D01*
Y030171D01*
X034283Y030065D01*
X034338Y029971D01*
X034415Y029894D01*
X03451Y029839D01*
X034615Y029811D01*
X034724D01*
X034829Y029839D01*
X034924Y029894D01*
X035001Y029971D01*
X035055Y030065D01*
X035084Y030171D01*
Y03028D01*
X035055Y030385D01*
X035001Y030479D01*
X034924Y030556D01*
X034829Y030611D01*
X034724Y030639D01*
D02*
G37*
G36*
X032724Y029649D02*
X032615D01*
X03251Y029621D01*
X032415Y029566D01*
X032338Y029489D01*
X032283Y029395D01*
X032255Y029289D01*
Y02918D01*
X032283Y029075D01*
X032338Y028981D01*
X032415Y028904D01*
X03251Y028849D01*
X032615Y028821D01*
X032724D01*
X032829Y028849D01*
X032924Y028904D01*
X033001Y028981D01*
X033055Y029075D01*
X033084Y02918D01*
Y029289D01*
X033055Y029395D01*
X033001Y029489D01*
X032924Y029566D01*
X032829Y029621D01*
X032724Y029649D01*
D02*
G37*
G36*
X031724D02*
X031615D01*
X03151Y029621D01*
X031415Y029566D01*
X031338Y029489D01*
X031283Y029395D01*
X031255Y029289D01*
Y02918D01*
X031283Y029075D01*
X031338Y028981D01*
X031415Y028904D01*
X03151Y028849D01*
X031615Y028821D01*
X031724D01*
X031829Y028849D01*
X031924Y028904D01*
X032001Y028981D01*
X032055Y029075D01*
X032084Y02918D01*
Y029289D01*
X032055Y029395D01*
X032001Y029489D01*
X031924Y029566D01*
X031829Y029621D01*
X031724Y029649D01*
D02*
G37*
G36*
X014724D02*
X014615D01*
X01451Y029621D01*
X014415Y029566D01*
X014338Y029489D01*
X014283Y029395D01*
X014255Y029289D01*
Y02918D01*
X014283Y029075D01*
X014338Y028981D01*
X014415Y028904D01*
X01451Y028849D01*
X014615Y028821D01*
X014724D01*
X014829Y028849D01*
X014924Y028904D01*
X015001Y028981D01*
X015055Y029075D01*
X015084Y02918D01*
Y029289D01*
X015055Y029395D01*
X015001Y029489D01*
X014924Y029566D01*
X014829Y029621D01*
X014724Y029649D01*
D02*
G37*
G36*
X013724D02*
X013615D01*
X01351Y029621D01*
X013415Y029566D01*
X013338Y029489D01*
X013283Y029395D01*
X013255Y029289D01*
Y02918D01*
X013283Y029075D01*
X013338Y028981D01*
X013415Y028904D01*
X01351Y028849D01*
X013615Y028821D01*
X013724D01*
X013829Y028849D01*
X013924Y028904D01*
X014001Y028981D01*
X014055Y029075D01*
X014084Y02918D01*
Y029289D01*
X014055Y029395D01*
X014001Y029489D01*
X013924Y029566D01*
X013829Y029621D01*
X013724Y029649D01*
D02*
G37*
G36*
X011724D02*
X011615D01*
X01151Y029621D01*
X011415Y029566D01*
X011338Y029489D01*
X011283Y029395D01*
X011255Y029289D01*
Y02918D01*
X011283Y029075D01*
X011338Y028981D01*
X011415Y028904D01*
X01151Y028849D01*
X011615Y028821D01*
X011724D01*
X011829Y028849D01*
X011924Y028904D01*
X012001Y028981D01*
X012055Y029075D01*
X012084Y02918D01*
Y029289D01*
X012055Y029395D01*
X012001Y029489D01*
X011924Y029566D01*
X011829Y029621D01*
X011724Y029649D01*
D02*
G37*
G36*
X010724D02*
X010615D01*
X01051Y029621D01*
X010415Y029566D01*
X010338Y029489D01*
X010283Y029395D01*
X010255Y029289D01*
Y02918D01*
X010283Y029075D01*
X010338Y028981D01*
X010415Y028904D01*
X01051Y028849D01*
X010615Y028821D01*
X010724D01*
X010829Y028849D01*
X010924Y028904D01*
X011001Y028981D01*
X011055Y029075D01*
X011084Y02918D01*
Y029289D01*
X011055Y029395D01*
X011001Y029489D01*
X010924Y029566D01*
X010829Y029621D01*
X010724Y029649D01*
D02*
G37*
G36*
X035724Y029639D02*
X035615D01*
X03551Y029611D01*
X035415Y029557D01*
X035338Y029479D01*
X035283Y029385D01*
X035255Y02928D01*
Y029171D01*
X035283Y029065D01*
X035338Y028971D01*
X035415Y028894D01*
X03551Y028839D01*
X035615Y028811D01*
X035724D01*
X035829Y028839D01*
X035924Y028894D01*
X036001Y028971D01*
X036055Y029065D01*
X036084Y029171D01*
Y02928D01*
X036055Y029385D01*
X036001Y029479D01*
X035924Y029557D01*
X035829Y029611D01*
X035724Y029639D01*
D02*
G37*
G36*
X034724D02*
X034615D01*
X03451Y029611D01*
X034415Y029557D01*
X034338Y029479D01*
X034283Y029385D01*
X034255Y02928D01*
Y029171D01*
X034283Y029065D01*
X034338Y028971D01*
X034415Y028894D01*
X03451Y028839D01*
X034615Y028811D01*
X034724D01*
X034829Y028839D01*
X034924Y028894D01*
X035001Y028971D01*
X035055Y029065D01*
X035084Y029171D01*
Y02928D01*
X035055Y029385D01*
X035001Y029479D01*
X034924Y029557D01*
X034829Y029611D01*
X034724Y029639D01*
D02*
G37*
G36*
X032724Y028649D02*
X032615D01*
X03251Y028621D01*
X032415Y028566D01*
X032338Y028489D01*
X032283Y028395D01*
X032255Y028289D01*
Y02818D01*
X032283Y028075D01*
X032338Y027981D01*
X032415Y027903D01*
X03251Y027849D01*
X032615Y027821D01*
X032724D01*
X032829Y027849D01*
X032924Y027903D01*
X033001Y027981D01*
X033055Y028075D01*
X033084Y02818D01*
Y028289D01*
X033055Y028395D01*
X033001Y028489D01*
X032924Y028566D01*
X032829Y028621D01*
X032724Y028649D01*
D02*
G37*
G36*
X031724D02*
X031615D01*
X03151Y028621D01*
X031415Y028566D01*
X031338Y028489D01*
X031283Y028395D01*
X031255Y028289D01*
Y02818D01*
X031283Y028075D01*
X031338Y027981D01*
X031415Y027903D01*
X03151Y027849D01*
X031615Y027821D01*
X031724D01*
X031829Y027849D01*
X031924Y027903D01*
X032001Y027981D01*
X032055Y028075D01*
X032084Y02818D01*
Y028289D01*
X032055Y028395D01*
X032001Y028489D01*
X031924Y028566D01*
X031829Y028621D01*
X031724Y028649D01*
D02*
G37*
G36*
X014724D02*
X014615D01*
X01451Y028621D01*
X014415Y028566D01*
X014338Y028489D01*
X014283Y028395D01*
X014255Y028289D01*
Y02818D01*
X014283Y028075D01*
X014338Y027981D01*
X014415Y027903D01*
X01451Y027849D01*
X014615Y027821D01*
X014724D01*
X014829Y027849D01*
X014924Y027903D01*
X015001Y027981D01*
X015055Y028075D01*
X015084Y02818D01*
Y028289D01*
X015055Y028395D01*
X015001Y028489D01*
X014924Y028566D01*
X014829Y028621D01*
X014724Y028649D01*
D02*
G37*
G36*
X013724D02*
X013615D01*
X01351Y028621D01*
X013415Y028566D01*
X013338Y028489D01*
X013283Y028395D01*
X013255Y028289D01*
Y02818D01*
X013283Y028075D01*
X013338Y027981D01*
X013415Y027903D01*
X01351Y027849D01*
X013615Y027821D01*
X013724D01*
X013829Y027849D01*
X013924Y027903D01*
X014001Y027981D01*
X014055Y028075D01*
X014084Y02818D01*
Y028289D01*
X014055Y028395D01*
X014001Y028489D01*
X013924Y028566D01*
X013829Y028621D01*
X013724Y028649D01*
D02*
G37*
G36*
X011724D02*
X011615D01*
X01151Y028621D01*
X011415Y028566D01*
X011338Y028489D01*
X011283Y028395D01*
X011255Y028289D01*
Y02818D01*
X011283Y028075D01*
X011338Y027981D01*
X011415Y027903D01*
X01151Y027849D01*
X011615Y027821D01*
X011724D01*
X011829Y027849D01*
X011924Y027903D01*
X012001Y027981D01*
X012055Y028075D01*
X012084Y02818D01*
Y028289D01*
X012055Y028395D01*
X012001Y028489D01*
X011924Y028566D01*
X011829Y028621D01*
X011724Y028649D01*
D02*
G37*
G36*
X010724D02*
X010615D01*
X01051Y028621D01*
X010415Y028566D01*
X010338Y028489D01*
X010283Y028395D01*
X010255Y028289D01*
Y02818D01*
X010283Y028075D01*
X010338Y027981D01*
X010415Y027903D01*
X01051Y027849D01*
X010615Y027821D01*
X010724D01*
X010829Y027849D01*
X010924Y027903D01*
X011001Y027981D01*
X011055Y028075D01*
X011084Y02818D01*
Y028289D01*
X011055Y028395D01*
X011001Y028489D01*
X010924Y028566D01*
X010829Y028621D01*
X010724Y028649D01*
D02*
G37*
G36*
X035724Y028639D02*
X035615D01*
X03551Y028611D01*
X035415Y028556D01*
X035338Y028479D01*
X035283Y028385D01*
X035255Y02828D01*
Y028171D01*
X035283Y028065D01*
X035338Y027971D01*
X035415Y027894D01*
X03551Y027839D01*
X035615Y027811D01*
X035724D01*
X035829Y027839D01*
X035924Y027894D01*
X036001Y027971D01*
X036055Y028065D01*
X036084Y028171D01*
Y02828D01*
X036055Y028385D01*
X036001Y028479D01*
X035924Y028556D01*
X035829Y028611D01*
X035724Y028639D01*
D02*
G37*
G36*
X034724D02*
X034615D01*
X03451Y028611D01*
X034415Y028556D01*
X034338Y028479D01*
X034283Y028385D01*
X034255Y02828D01*
Y028171D01*
X034283Y028065D01*
X034338Y027971D01*
X034415Y027894D01*
X03451Y027839D01*
X034615Y027811D01*
X034724D01*
X034829Y027839D01*
X034924Y027894D01*
X035001Y027971D01*
X035055Y028065D01*
X035084Y028171D01*
Y02828D01*
X035055Y028385D01*
X035001Y028479D01*
X034924Y028556D01*
X034829Y028611D01*
X034724Y028639D01*
D02*
G37*
G36*
X032724Y027649D02*
X032615D01*
X03251Y027621D01*
X032415Y027566D01*
X032338Y027489D01*
X032283Y027395D01*
X032255Y027289D01*
Y02718D01*
X032283Y027075D01*
X032338Y026981D01*
X032415Y026904D01*
X03251Y026849D01*
X032615Y026821D01*
X032724D01*
X032829Y026849D01*
X032924Y026904D01*
X033001Y026981D01*
X033055Y027075D01*
X033084Y02718D01*
Y027289D01*
X033055Y027395D01*
X033001Y027489D01*
X032924Y027566D01*
X032829Y027621D01*
X032724Y027649D01*
D02*
G37*
G36*
X031724D02*
X031615D01*
X03151Y027621D01*
X031415Y027566D01*
X031338Y027489D01*
X031283Y027395D01*
X031255Y027289D01*
Y02718D01*
X031283Y027075D01*
X031338Y026981D01*
X031415Y026904D01*
X03151Y026849D01*
X031615Y026821D01*
X031724D01*
X031829Y026849D01*
X031924Y026904D01*
X032001Y026981D01*
X032055Y027075D01*
X032084Y02718D01*
Y027289D01*
X032055Y027395D01*
X032001Y027489D01*
X031924Y027566D01*
X031829Y027621D01*
X031724Y027649D01*
D02*
G37*
G36*
X014724D02*
X014615D01*
X01451Y027621D01*
X014415Y027566D01*
X014338Y027489D01*
X014283Y027395D01*
X014255Y027289D01*
Y02718D01*
X014283Y027075D01*
X014338Y026981D01*
X014415Y026904D01*
X01451Y026849D01*
X014615Y026821D01*
X014724D01*
X014829Y026849D01*
X014924Y026904D01*
X015001Y026981D01*
X015055Y027075D01*
X015084Y02718D01*
Y027289D01*
X015055Y027395D01*
X015001Y027489D01*
X014924Y027566D01*
X014829Y027621D01*
X014724Y027649D01*
D02*
G37*
G36*
X013724D02*
X013615D01*
X01351Y027621D01*
X013415Y027566D01*
X013338Y027489D01*
X013283Y027395D01*
X013255Y027289D01*
Y02718D01*
X013283Y027075D01*
X013338Y026981D01*
X013415Y026904D01*
X01351Y026849D01*
X013615Y026821D01*
X013724D01*
X013829Y026849D01*
X013924Y026904D01*
X014001Y026981D01*
X014055Y027075D01*
X014084Y02718D01*
Y027289D01*
X014055Y027395D01*
X014001Y027489D01*
X013924Y027566D01*
X013829Y027621D01*
X013724Y027649D01*
D02*
G37*
G36*
X011724D02*
X011615D01*
X01151Y027621D01*
X011415Y027566D01*
X011338Y027489D01*
X011283Y027395D01*
X011255Y027289D01*
Y02718D01*
X011283Y027075D01*
X011338Y026981D01*
X011415Y026904D01*
X01151Y026849D01*
X011615Y026821D01*
X011724D01*
X011829Y026849D01*
X011924Y026904D01*
X012001Y026981D01*
X012055Y027075D01*
X012084Y02718D01*
Y027289D01*
X012055Y027395D01*
X012001Y027489D01*
X011924Y027566D01*
X011829Y027621D01*
X011724Y027649D01*
D02*
G37*
G36*
X010724D02*
X010615D01*
X01051Y027621D01*
X010415Y027566D01*
X010338Y027489D01*
X010283Y027395D01*
X010255Y027289D01*
Y02718D01*
X010283Y027075D01*
X010338Y026981D01*
X010415Y026904D01*
X01051Y026849D01*
X010615Y026821D01*
X010724D01*
X010829Y026849D01*
X010924Y026904D01*
X011001Y026981D01*
X011055Y027075D01*
X011084Y02718D01*
Y027289D01*
X011055Y027395D01*
X011001Y027489D01*
X010924Y027566D01*
X010829Y027621D01*
X010724Y027649D01*
D02*
G37*
G36*
X035724Y027639D02*
X035615D01*
X03551Y027611D01*
X035415Y027557D01*
X035338Y027479D01*
X035283Y027385D01*
X035255Y02728D01*
Y027171D01*
X035283Y027065D01*
X035338Y026971D01*
X035415Y026894D01*
X03551Y026839D01*
X035615Y026811D01*
X035724D01*
X035829Y026839D01*
X035924Y026894D01*
X036001Y026971D01*
X036055Y027065D01*
X036084Y027171D01*
Y02728D01*
X036055Y027385D01*
X036001Y027479D01*
X035924Y027557D01*
X035829Y027611D01*
X035724Y027639D01*
D02*
G37*
G36*
X034724D02*
X034615D01*
X03451Y027611D01*
X034415Y027557D01*
X034338Y027479D01*
X034283Y027385D01*
X034255Y02728D01*
Y027171D01*
X034283Y027065D01*
X034338Y026971D01*
X034415Y026894D01*
X03451Y026839D01*
X034615Y026811D01*
X034724D01*
X034829Y026839D01*
X034924Y026894D01*
X035001Y026971D01*
X035055Y027065D01*
X035084Y027171D01*
Y02728D01*
X035055Y027385D01*
X035001Y027479D01*
X034924Y027557D01*
X034829Y027611D01*
X034724Y027639D01*
D02*
G37*
G36*
X032724Y026649D02*
X032615D01*
X03251Y026621D01*
X032415Y026566D01*
X032338Y026489D01*
X032283Y026395D01*
X032255Y026289D01*
Y02618D01*
X032283Y026075D01*
X032338Y025981D01*
X032415Y025903D01*
X03251Y025849D01*
X032615Y025821D01*
X032724D01*
X032829Y025849D01*
X032924Y025903D01*
X033001Y025981D01*
X033055Y026075D01*
X033084Y02618D01*
Y026289D01*
X033055Y026395D01*
X033001Y026489D01*
X032924Y026566D01*
X032829Y026621D01*
X032724Y026649D01*
D02*
G37*
G36*
X031724D02*
X031615D01*
X03151Y026621D01*
X031415Y026566D01*
X031338Y026489D01*
X031283Y026395D01*
X031255Y026289D01*
Y02618D01*
X031283Y026075D01*
X031338Y025981D01*
X031415Y025903D01*
X03151Y025849D01*
X031615Y025821D01*
X031724D01*
X031829Y025849D01*
X031924Y025903D01*
X032001Y025981D01*
X032055Y026075D01*
X032084Y02618D01*
Y026289D01*
X032055Y026395D01*
X032001Y026489D01*
X031924Y026566D01*
X031829Y026621D01*
X031724Y026649D01*
D02*
G37*
G36*
X014724D02*
X014615D01*
X01451Y026621D01*
X014415Y026566D01*
X014338Y026489D01*
X014283Y026395D01*
X014255Y026289D01*
Y02618D01*
X014283Y026075D01*
X014338Y025981D01*
X014415Y025903D01*
X01451Y025849D01*
X014615Y025821D01*
X014724D01*
X014829Y025849D01*
X014924Y025903D01*
X015001Y025981D01*
X015055Y026075D01*
X015084Y02618D01*
Y026289D01*
X015055Y026395D01*
X015001Y026489D01*
X014924Y026566D01*
X014829Y026621D01*
X014724Y026649D01*
D02*
G37*
G36*
X013724D02*
X013615D01*
X01351Y026621D01*
X013415Y026566D01*
X013338Y026489D01*
X013283Y026395D01*
X013255Y026289D01*
Y02618D01*
X013283Y026075D01*
X013338Y025981D01*
X013415Y025903D01*
X01351Y025849D01*
X013615Y025821D01*
X013724D01*
X013829Y025849D01*
X013924Y025903D01*
X014001Y025981D01*
X014055Y026075D01*
X014084Y02618D01*
Y026289D01*
X014055Y026395D01*
X014001Y026489D01*
X013924Y026566D01*
X013829Y026621D01*
X013724Y026649D01*
D02*
G37*
G36*
X011724D02*
X011615D01*
X01151Y026621D01*
X011415Y026566D01*
X011338Y026489D01*
X011283Y026395D01*
X011255Y026289D01*
Y02618D01*
X011283Y026075D01*
X011338Y025981D01*
X011415Y025903D01*
X01151Y025849D01*
X011615Y025821D01*
X011724D01*
X011829Y025849D01*
X011924Y025903D01*
X012001Y025981D01*
X012055Y026075D01*
X012084Y02618D01*
Y026289D01*
X012055Y026395D01*
X012001Y026489D01*
X011924Y026566D01*
X011829Y026621D01*
X011724Y026649D01*
D02*
G37*
G36*
X010724D02*
X010615D01*
X01051Y026621D01*
X010415Y026566D01*
X010338Y026489D01*
X010283Y026395D01*
X010255Y026289D01*
Y02618D01*
X010283Y026075D01*
X010338Y025981D01*
X010415Y025903D01*
X01051Y025849D01*
X010615Y025821D01*
X010724D01*
X010829Y025849D01*
X010924Y025903D01*
X011001Y025981D01*
X011055Y026075D01*
X011084Y02618D01*
Y026289D01*
X011055Y026395D01*
X011001Y026489D01*
X010924Y026566D01*
X010829Y026621D01*
X010724Y026649D01*
D02*
G37*
G36*
X035724Y026639D02*
X035615D01*
X03551Y026611D01*
X035415Y026556D01*
X035338Y026479D01*
X035283Y026385D01*
X035255Y02628D01*
Y026171D01*
X035283Y026065D01*
X035338Y025971D01*
X035415Y025894D01*
X03551Y025839D01*
X035615Y025811D01*
X035724D01*
X035829Y025839D01*
X035924Y025894D01*
X036001Y025971D01*
X036055Y026065D01*
X036084Y026171D01*
Y02628D01*
X036055Y026385D01*
X036001Y026479D01*
X035924Y026556D01*
X035829Y026611D01*
X035724Y026639D01*
D02*
G37*
G36*
X034724D02*
X034615D01*
X03451Y026611D01*
X034415Y026556D01*
X034338Y026479D01*
X034283Y026385D01*
X034255Y02628D01*
Y026171D01*
X034283Y026065D01*
X034338Y025971D01*
X034415Y025894D01*
X03451Y025839D01*
X034615Y025811D01*
X034724D01*
X034829Y025839D01*
X034924Y025894D01*
X035001Y025971D01*
X035055Y026065D01*
X035084Y026171D01*
Y02628D01*
X035055Y026385D01*
X035001Y026479D01*
X034924Y026556D01*
X034829Y026611D01*
X034724Y026639D01*
D02*
G37*
G36*
X032724Y025649D02*
X032615D01*
X03251Y025621D01*
X032415Y025566D01*
X032338Y025489D01*
X032283Y025395D01*
X032255Y025289D01*
Y02518D01*
X032283Y025075D01*
X032338Y024981D01*
X032415Y024904D01*
X03251Y024849D01*
X032615Y024821D01*
X032724D01*
X032829Y024849D01*
X032924Y024904D01*
X033001Y024981D01*
X033055Y025075D01*
X033084Y02518D01*
Y025289D01*
X033055Y025395D01*
X033001Y025489D01*
X032924Y025566D01*
X032829Y025621D01*
X032724Y025649D01*
D02*
G37*
G36*
X031724D02*
X031615D01*
X03151Y025621D01*
X031415Y025566D01*
X031338Y025489D01*
X031283Y025395D01*
X031255Y025289D01*
Y02518D01*
X031283Y025075D01*
X031338Y024981D01*
X031415Y024904D01*
X03151Y024849D01*
X031615Y024821D01*
X031724D01*
X031829Y024849D01*
X031924Y024904D01*
X032001Y024981D01*
X032055Y025075D01*
X032084Y02518D01*
Y025289D01*
X032055Y025395D01*
X032001Y025489D01*
X031924Y025566D01*
X031829Y025621D01*
X031724Y025649D01*
D02*
G37*
G36*
X014724D02*
X014615D01*
X01451Y025621D01*
X014415Y025566D01*
X014338Y025489D01*
X014283Y025395D01*
X014255Y025289D01*
Y02518D01*
X014283Y025075D01*
X014338Y024981D01*
X014415Y024904D01*
X01451Y024849D01*
X014615Y024821D01*
X014724D01*
X014829Y024849D01*
X014924Y024904D01*
X015001Y024981D01*
X015055Y025075D01*
X015084Y02518D01*
Y025289D01*
X015055Y025395D01*
X015001Y025489D01*
X014924Y025566D01*
X014829Y025621D01*
X014724Y025649D01*
D02*
G37*
G36*
X013724D02*
X013615D01*
X01351Y025621D01*
X013415Y025566D01*
X013338Y025489D01*
X013283Y025395D01*
X013255Y025289D01*
Y02518D01*
X013283Y025075D01*
X013338Y024981D01*
X013415Y024904D01*
X01351Y024849D01*
X013615Y024821D01*
X013724D01*
X013829Y024849D01*
X013924Y024904D01*
X014001Y024981D01*
X014055Y025075D01*
X014084Y02518D01*
Y025289D01*
X014055Y025395D01*
X014001Y025489D01*
X013924Y025566D01*
X013829Y025621D01*
X013724Y025649D01*
D02*
G37*
G36*
X011724D02*
X011615D01*
X01151Y025621D01*
X011415Y025566D01*
X011338Y025489D01*
X011283Y025395D01*
X011255Y025289D01*
Y02518D01*
X011283Y025075D01*
X011338Y024981D01*
X011415Y024904D01*
X01151Y024849D01*
X011615Y024821D01*
X011724D01*
X011829Y024849D01*
X011924Y024904D01*
X012001Y024981D01*
X012055Y025075D01*
X012084Y02518D01*
Y025289D01*
X012055Y025395D01*
X012001Y025489D01*
X011924Y025566D01*
X011829Y025621D01*
X011724Y025649D01*
D02*
G37*
G36*
X010724D02*
X010615D01*
X01051Y025621D01*
X010415Y025566D01*
X010338Y025489D01*
X010283Y025395D01*
X010255Y025289D01*
Y02518D01*
X010283Y025075D01*
X010338Y024981D01*
X010415Y024904D01*
X01051Y024849D01*
X010615Y024821D01*
X010724D01*
X010829Y024849D01*
X010924Y024904D01*
X011001Y024981D01*
X011055Y025075D01*
X011084Y02518D01*
Y025289D01*
X011055Y025395D01*
X011001Y025489D01*
X010924Y025566D01*
X010829Y025621D01*
X010724Y025649D01*
D02*
G37*
G36*
X035724Y025639D02*
X035615D01*
X03551Y025611D01*
X035415Y025556D01*
X035338Y025479D01*
X035283Y025385D01*
X035255Y02528D01*
Y025171D01*
X035283Y025065D01*
X035338Y024971D01*
X035415Y024894D01*
X03551Y024839D01*
X035615Y024811D01*
X035724D01*
X035829Y024839D01*
X035924Y024894D01*
X036001Y024971D01*
X036055Y025065D01*
X036084Y025171D01*
Y02528D01*
X036055Y025385D01*
X036001Y025479D01*
X035924Y025556D01*
X035829Y025611D01*
X035724Y025639D01*
D02*
G37*
G36*
X034724D02*
X034615D01*
X03451Y025611D01*
X034415Y025556D01*
X034338Y025479D01*
X034283Y025385D01*
X034255Y02528D01*
Y025171D01*
X034283Y025065D01*
X034338Y024971D01*
X034415Y024894D01*
X03451Y024839D01*
X034615Y024811D01*
X034724D01*
X034829Y024839D01*
X034924Y024894D01*
X035001Y024971D01*
X035055Y025065D01*
X035084Y025171D01*
Y02528D01*
X035055Y025385D01*
X035001Y025479D01*
X034924Y025556D01*
X034829Y025611D01*
X034724Y025639D01*
D02*
G37*
G36*
X032724Y024649D02*
X032615D01*
X03251Y024621D01*
X032415Y024566D01*
X032338Y024489D01*
X032283Y024395D01*
X032255Y024289D01*
Y02418D01*
X032283Y024075D01*
X032338Y023981D01*
X032415Y023904D01*
X03251Y023849D01*
X032615Y023821D01*
X032724D01*
X032829Y023849D01*
X032924Y023904D01*
X033001Y023981D01*
X033055Y024075D01*
X033084Y02418D01*
Y024289D01*
X033055Y024395D01*
X033001Y024489D01*
X032924Y024566D01*
X032829Y024621D01*
X032724Y024649D01*
D02*
G37*
G36*
X031724D02*
X031615D01*
X03151Y024621D01*
X031415Y024566D01*
X031338Y024489D01*
X031283Y024395D01*
X031255Y024289D01*
Y02418D01*
X031283Y024075D01*
X031338Y023981D01*
X031415Y023904D01*
X03151Y023849D01*
X031615Y023821D01*
X031724D01*
X031829Y023849D01*
X031924Y023904D01*
X032001Y023981D01*
X032055Y024075D01*
X032084Y02418D01*
Y024289D01*
X032055Y024395D01*
X032001Y024489D01*
X031924Y024566D01*
X031829Y024621D01*
X031724Y024649D01*
D02*
G37*
G36*
X014724D02*
X014615D01*
X01451Y024621D01*
X014415Y024566D01*
X014338Y024489D01*
X014283Y024395D01*
X014255Y024289D01*
Y02418D01*
X014283Y024075D01*
X014338Y023981D01*
X014415Y023904D01*
X01451Y023849D01*
X014615Y023821D01*
X014724D01*
X014829Y023849D01*
X014924Y023904D01*
X015001Y023981D01*
X015055Y024075D01*
X015084Y02418D01*
Y024289D01*
X015055Y024395D01*
X015001Y024489D01*
X014924Y024566D01*
X014829Y024621D01*
X014724Y024649D01*
D02*
G37*
G36*
X013724D02*
X013615D01*
X01351Y024621D01*
X013415Y024566D01*
X013338Y024489D01*
X013283Y024395D01*
X013255Y024289D01*
Y02418D01*
X013283Y024075D01*
X013338Y023981D01*
X013415Y023904D01*
X01351Y023849D01*
X013615Y023821D01*
X013724D01*
X013829Y023849D01*
X013924Y023904D01*
X014001Y023981D01*
X014055Y024075D01*
X014084Y02418D01*
Y024289D01*
X014055Y024395D01*
X014001Y024489D01*
X013924Y024566D01*
X013829Y024621D01*
X013724Y024649D01*
D02*
G37*
G36*
X011724D02*
X011615D01*
X01151Y024621D01*
X011415Y024566D01*
X011338Y024489D01*
X011283Y024395D01*
X011255Y024289D01*
Y02418D01*
X011283Y024075D01*
X011338Y023981D01*
X011415Y023904D01*
X01151Y023849D01*
X011615Y023821D01*
X011724D01*
X011829Y023849D01*
X011924Y023904D01*
X012001Y023981D01*
X012055Y024075D01*
X012084Y02418D01*
Y024289D01*
X012055Y024395D01*
X012001Y024489D01*
X011924Y024566D01*
X011829Y024621D01*
X011724Y024649D01*
D02*
G37*
G36*
X010724D02*
X010615D01*
X01051Y024621D01*
X010415Y024566D01*
X010338Y024489D01*
X010283Y024395D01*
X010255Y024289D01*
Y02418D01*
X010283Y024075D01*
X010338Y023981D01*
X010415Y023904D01*
X01051Y023849D01*
X010615Y023821D01*
X010724D01*
X010829Y023849D01*
X010924Y023904D01*
X011001Y023981D01*
X011055Y024075D01*
X011084Y02418D01*
Y024289D01*
X011055Y024395D01*
X011001Y024489D01*
X010924Y024566D01*
X010829Y024621D01*
X010724Y024649D01*
D02*
G37*
G36*
X035724Y024639D02*
X035615D01*
X03551Y024611D01*
X035415Y024557D01*
X035338Y024479D01*
X035283Y024385D01*
X035255Y02428D01*
Y024171D01*
X035283Y024065D01*
X035338Y023971D01*
X035415Y023894D01*
X03551Y023839D01*
X035615Y023811D01*
X035724D01*
X035829Y023839D01*
X035924Y023894D01*
X036001Y023971D01*
X036055Y024065D01*
X036084Y024171D01*
Y02428D01*
X036055Y024385D01*
X036001Y024479D01*
X035924Y024557D01*
X035829Y024611D01*
X035724Y024639D01*
D02*
G37*
G36*
X034724D02*
X034615D01*
X03451Y024611D01*
X034415Y024557D01*
X034338Y024479D01*
X034283Y024385D01*
X034255Y02428D01*
Y024171D01*
X034283Y024065D01*
X034338Y023971D01*
X034415Y023894D01*
X03451Y023839D01*
X034615Y023811D01*
X034724D01*
X034829Y023839D01*
X034924Y023894D01*
X035001Y023971D01*
X035055Y024065D01*
X035084Y024171D01*
Y02428D01*
X035055Y024385D01*
X035001Y024479D01*
X034924Y024557D01*
X034829Y024611D01*
X034724Y024639D01*
D02*
G37*
G36*
X032724Y023649D02*
X032615D01*
X03251Y023621D01*
X032415Y023566D01*
X032338Y023489D01*
X032283Y023395D01*
X032255Y023289D01*
Y02318D01*
X032283Y023075D01*
X032338Y022981D01*
X032415Y022903D01*
X03251Y022849D01*
X032615Y022821D01*
X032724D01*
X032829Y022849D01*
X032924Y022903D01*
X033001Y022981D01*
X033055Y023075D01*
X033084Y02318D01*
Y023289D01*
X033055Y023395D01*
X033001Y023489D01*
X032924Y023566D01*
X032829Y023621D01*
X032724Y023649D01*
D02*
G37*
G36*
X031724D02*
X031615D01*
X03151Y023621D01*
X031415Y023566D01*
X031338Y023489D01*
X031283Y023395D01*
X031255Y023289D01*
Y02318D01*
X031283Y023075D01*
X031338Y022981D01*
X031415Y022903D01*
X03151Y022849D01*
X031615Y022821D01*
X031724D01*
X031829Y022849D01*
X031924Y022903D01*
X032001Y022981D01*
X032055Y023075D01*
X032084Y02318D01*
Y023289D01*
X032055Y023395D01*
X032001Y023489D01*
X031924Y023566D01*
X031829Y023621D01*
X031724Y023649D01*
D02*
G37*
G36*
X014724D02*
X014615D01*
X01451Y023621D01*
X014415Y023566D01*
X014338Y023489D01*
X014283Y023395D01*
X014255Y023289D01*
Y02318D01*
X014283Y023075D01*
X014338Y022981D01*
X014415Y022903D01*
X01451Y022849D01*
X014615Y022821D01*
X014724D01*
X014829Y022849D01*
X014924Y022903D01*
X015001Y022981D01*
X015055Y023075D01*
X015084Y02318D01*
Y023289D01*
X015055Y023395D01*
X015001Y023489D01*
X014924Y023566D01*
X014829Y023621D01*
X014724Y023649D01*
D02*
G37*
G36*
X013724D02*
X013615D01*
X01351Y023621D01*
X013415Y023566D01*
X013338Y023489D01*
X013283Y023395D01*
X013255Y023289D01*
Y02318D01*
X013283Y023075D01*
X013338Y022981D01*
X013415Y022903D01*
X01351Y022849D01*
X013615Y022821D01*
X013724D01*
X013829Y022849D01*
X013924Y022903D01*
X014001Y022981D01*
X014055Y023075D01*
X014084Y02318D01*
Y023289D01*
X014055Y023395D01*
X014001Y023489D01*
X013924Y023566D01*
X013829Y023621D01*
X013724Y023649D01*
D02*
G37*
G36*
X011724D02*
X011615D01*
X01151Y023621D01*
X011415Y023566D01*
X011338Y023489D01*
X011283Y023395D01*
X011255Y023289D01*
Y02318D01*
X011283Y023075D01*
X011338Y022981D01*
X011415Y022903D01*
X01151Y022849D01*
X011615Y022821D01*
X011724D01*
X011829Y022849D01*
X011924Y022903D01*
X012001Y022981D01*
X012055Y023075D01*
X012084Y02318D01*
Y023289D01*
X012055Y023395D01*
X012001Y023489D01*
X011924Y023566D01*
X011829Y023621D01*
X011724Y023649D01*
D02*
G37*
G36*
X010724D02*
X010615D01*
X01051Y023621D01*
X010415Y023566D01*
X010338Y023489D01*
X010283Y023395D01*
X010255Y023289D01*
Y02318D01*
X010283Y023075D01*
X010338Y022981D01*
X010415Y022903D01*
X01051Y022849D01*
X010615Y022821D01*
X010724D01*
X010829Y022849D01*
X010924Y022903D01*
X011001Y022981D01*
X011055Y023075D01*
X011084Y02318D01*
Y023289D01*
X011055Y023395D01*
X011001Y023489D01*
X010924Y023566D01*
X010829Y023621D01*
X010724Y023649D01*
D02*
G37*
G36*
X035724Y023639D02*
X035615D01*
X03551Y023611D01*
X035415Y023556D01*
X035338Y023479D01*
X035283Y023385D01*
X035255Y02328D01*
Y023171D01*
X035283Y023065D01*
X035338Y022971D01*
X035415Y022894D01*
X03551Y022839D01*
X035615Y022811D01*
X035724D01*
X035829Y022839D01*
X035924Y022894D01*
X036001Y022971D01*
X036055Y023065D01*
X036084Y023171D01*
Y02328D01*
X036055Y023385D01*
X036001Y023479D01*
X035924Y023556D01*
X035829Y023611D01*
X035724Y023639D01*
D02*
G37*
G36*
X034724D02*
X034615D01*
X03451Y023611D01*
X034415Y023556D01*
X034338Y023479D01*
X034283Y023385D01*
X034255Y02328D01*
Y023171D01*
X034283Y023065D01*
X034338Y022971D01*
X034415Y022894D01*
X03451Y022839D01*
X034615Y022811D01*
X034724D01*
X034829Y022839D01*
X034924Y022894D01*
X035001Y022971D01*
X035055Y023065D01*
X035084Y023171D01*
Y02328D01*
X035055Y023385D01*
X035001Y023479D01*
X034924Y023556D01*
X034829Y023611D01*
X034724Y023639D01*
D02*
G37*
G36*
X032724Y022649D02*
X032615D01*
X03251Y022621D01*
X032415Y022566D01*
X032338Y022489D01*
X032283Y022395D01*
X032255Y022289D01*
Y02218D01*
X032283Y022075D01*
X032338Y021981D01*
X032415Y021904D01*
X03251Y021849D01*
X032615Y021821D01*
X032724D01*
X032829Y021849D01*
X032924Y021904D01*
X033001Y021981D01*
X033055Y022075D01*
X033084Y02218D01*
Y022289D01*
X033055Y022395D01*
X033001Y022489D01*
X032924Y022566D01*
X032829Y022621D01*
X032724Y022649D01*
D02*
G37*
G36*
X031724D02*
X031615D01*
X03151Y022621D01*
X031415Y022566D01*
X031338Y022489D01*
X031283Y022395D01*
X031255Y022289D01*
Y02218D01*
X031283Y022075D01*
X031338Y021981D01*
X031415Y021904D01*
X03151Y021849D01*
X031615Y021821D01*
X031724D01*
X031829Y021849D01*
X031924Y021904D01*
X032001Y021981D01*
X032055Y022075D01*
X032084Y02218D01*
Y022289D01*
X032055Y022395D01*
X032001Y022489D01*
X031924Y022566D01*
X031829Y022621D01*
X031724Y022649D01*
D02*
G37*
G36*
X014724D02*
X014615D01*
X01451Y022621D01*
X014415Y022566D01*
X014338Y022489D01*
X014283Y022395D01*
X014255Y022289D01*
Y02218D01*
X014283Y022075D01*
X014338Y021981D01*
X014415Y021904D01*
X01451Y021849D01*
X014615Y021821D01*
X014724D01*
X014829Y021849D01*
X014924Y021904D01*
X015001Y021981D01*
X015055Y022075D01*
X015084Y02218D01*
Y022289D01*
X015055Y022395D01*
X015001Y022489D01*
X014924Y022566D01*
X014829Y022621D01*
X014724Y022649D01*
D02*
G37*
G36*
X013724D02*
X013615D01*
X01351Y022621D01*
X013415Y022566D01*
X013338Y022489D01*
X013283Y022395D01*
X013255Y022289D01*
Y02218D01*
X013283Y022075D01*
X013338Y021981D01*
X013415Y021904D01*
X01351Y021849D01*
X013615Y021821D01*
X013724D01*
X013829Y021849D01*
X013924Y021904D01*
X014001Y021981D01*
X014055Y022075D01*
X014084Y02218D01*
Y022289D01*
X014055Y022395D01*
X014001Y022489D01*
X013924Y022566D01*
X013829Y022621D01*
X013724Y022649D01*
D02*
G37*
G36*
X011724D02*
X011615D01*
X01151Y022621D01*
X011415Y022566D01*
X011338Y022489D01*
X011283Y022395D01*
X011255Y022289D01*
Y02218D01*
X011283Y022075D01*
X011338Y021981D01*
X011415Y021904D01*
X01151Y021849D01*
X011615Y021821D01*
X011724D01*
X011829Y021849D01*
X011924Y021904D01*
X012001Y021981D01*
X012055Y022075D01*
X012084Y02218D01*
Y022289D01*
X012055Y022395D01*
X012001Y022489D01*
X011924Y022566D01*
X011829Y022621D01*
X011724Y022649D01*
D02*
G37*
G36*
X010724D02*
X010615D01*
X01051Y022621D01*
X010415Y022566D01*
X010338Y022489D01*
X010283Y022395D01*
X010255Y022289D01*
Y02218D01*
X010283Y022075D01*
X010338Y021981D01*
X010415Y021904D01*
X01051Y021849D01*
X010615Y021821D01*
X010724D01*
X010829Y021849D01*
X010924Y021904D01*
X011001Y021981D01*
X011055Y022075D01*
X011084Y02218D01*
Y022289D01*
X011055Y022395D01*
X011001Y022489D01*
X010924Y022566D01*
X010829Y022621D01*
X010724Y022649D01*
D02*
G37*
G36*
X035724Y022639D02*
X035615D01*
X03551Y022611D01*
X035415Y022557D01*
X035338Y022479D01*
X035283Y022385D01*
X035255Y02228D01*
Y022171D01*
X035283Y022065D01*
X035338Y021971D01*
X035415Y021894D01*
X03551Y021839D01*
X035615Y021811D01*
X035724D01*
X035829Y021839D01*
X035924Y021894D01*
X036001Y021971D01*
X036055Y022065D01*
X036084Y022171D01*
Y02228D01*
X036055Y022385D01*
X036001Y022479D01*
X035924Y022557D01*
X035829Y022611D01*
X035724Y022639D01*
D02*
G37*
G36*
X034724D02*
X034615D01*
X03451Y022611D01*
X034415Y022557D01*
X034338Y022479D01*
X034283Y022385D01*
X034255Y02228D01*
Y022171D01*
X034283Y022065D01*
X034338Y021971D01*
X034415Y021894D01*
X03451Y021839D01*
X034615Y021811D01*
X034724D01*
X034829Y021839D01*
X034924Y021894D01*
X035001Y021971D01*
X035055Y022065D01*
X035084Y022171D01*
Y02228D01*
X035055Y022385D01*
X035001Y022479D01*
X034924Y022557D01*
X034829Y022611D01*
X034724Y022639D01*
D02*
G37*
G36*
X011724Y021649D02*
X011615D01*
X01151Y021621D01*
X011415Y021566D01*
X011338Y021489D01*
X011283Y021395D01*
X011255Y021289D01*
Y02118D01*
X011283Y021075D01*
X011338Y020981D01*
X011415Y020903D01*
X01151Y020849D01*
X011615Y020821D01*
X011724D01*
X011829Y020849D01*
X011924Y020903D01*
X012001Y020981D01*
X012055Y021075D01*
X012084Y02118D01*
Y021289D01*
X012055Y021395D01*
X012001Y021489D01*
X011924Y021566D01*
X011829Y021621D01*
X011724Y021649D01*
D02*
G37*
G36*
X010724D02*
X010615D01*
X01051Y021621D01*
X010415Y021566D01*
X010338Y021489D01*
X010283Y021395D01*
X010255Y021289D01*
Y02118D01*
X010283Y021075D01*
X010338Y020981D01*
X010415Y020903D01*
X01051Y020849D01*
X010615Y020821D01*
X010724D01*
X010829Y020849D01*
X010924Y020903D01*
X011001Y020981D01*
X011055Y021075D01*
X011084Y02118D01*
Y021289D01*
X011055Y021395D01*
X011001Y021489D01*
X010924Y021566D01*
X010829Y021621D01*
X010724Y021649D01*
D02*
G37*
G36*
X035724Y021639D02*
X035615D01*
X03551Y021611D01*
X035415Y021556D01*
X035338Y021479D01*
X035283Y021385D01*
X035255Y02128D01*
Y021171D01*
X035283Y021065D01*
X035338Y020971D01*
X035415Y020894D01*
X03551Y020839D01*
X035615Y020811D01*
X035724D01*
X035829Y020839D01*
X035924Y020894D01*
X036001Y020971D01*
X036055Y021065D01*
X036084Y021171D01*
Y02128D01*
X036055Y021385D01*
X036001Y021479D01*
X035924Y021556D01*
X035829Y021611D01*
X035724Y021639D01*
D02*
G37*
G36*
X034724D02*
X034615D01*
X03451Y021611D01*
X034415Y021556D01*
X034338Y021479D01*
X034283Y021385D01*
X034255Y02128D01*
Y021171D01*
X034283Y021065D01*
X034338Y020971D01*
X034415Y020894D01*
X03451Y020839D01*
X034615Y020811D01*
X034724D01*
X034829Y020839D01*
X034924Y020894D01*
X035001Y020971D01*
X035055Y021065D01*
X035084Y021171D01*
Y02128D01*
X035055Y021385D01*
X035001Y021479D01*
X034924Y021556D01*
X034829Y021611D01*
X034724Y021639D01*
D02*
G37*
G36*
X011724Y020649D02*
X011615D01*
X01151Y020621D01*
X011415Y020566D01*
X011338Y020489D01*
X011283Y020395D01*
X011255Y020289D01*
Y02018D01*
X011283Y020075D01*
X011338Y019981D01*
X011415Y019904D01*
X01151Y019849D01*
X011615Y019821D01*
X011724D01*
X011829Y019849D01*
X011924Y019904D01*
X012001Y019981D01*
X012055Y020075D01*
X012084Y02018D01*
Y020289D01*
X012055Y020395D01*
X012001Y020489D01*
X011924Y020566D01*
X011829Y020621D01*
X011724Y020649D01*
D02*
G37*
G36*
X010724D02*
X010615D01*
X01051Y020621D01*
X010415Y020566D01*
X010338Y020489D01*
X010283Y020395D01*
X010255Y020289D01*
Y02018D01*
X010283Y020075D01*
X010338Y019981D01*
X010415Y019904D01*
X01051Y019849D01*
X010615Y019821D01*
X010724D01*
X010829Y019849D01*
X010924Y019904D01*
X011001Y019981D01*
X011055Y020075D01*
X011084Y02018D01*
Y020289D01*
X011055Y020395D01*
X011001Y020489D01*
X010924Y020566D01*
X010829Y020621D01*
X010724Y020649D01*
D02*
G37*
G36*
X035724Y020639D02*
X035615D01*
X03551Y020611D01*
X035415Y020556D01*
X035338Y020479D01*
X035283Y020385D01*
X035255Y02028D01*
Y020171D01*
X035283Y020065D01*
X035338Y019971D01*
X035415Y019894D01*
X03551Y019839D01*
X035615Y019811D01*
X035724D01*
X035829Y019839D01*
X035924Y019894D01*
X036001Y019971D01*
X036055Y020065D01*
X036084Y020171D01*
Y02028D01*
X036055Y020385D01*
X036001Y020479D01*
X035924Y020556D01*
X035829Y020611D01*
X035724Y020639D01*
D02*
G37*
G36*
X034724D02*
X034615D01*
X03451Y020611D01*
X034415Y020556D01*
X034338Y020479D01*
X034283Y020385D01*
X034255Y02028D01*
Y020171D01*
X034283Y020065D01*
X034338Y019971D01*
X034415Y019894D01*
X03451Y019839D01*
X034615Y019811D01*
X034724D01*
X034829Y019839D01*
X034924Y019894D01*
X035001Y019971D01*
X035055Y020065D01*
X035084Y020171D01*
Y02028D01*
X035055Y020385D01*
X035001Y020479D01*
X034924Y020556D01*
X034829Y020611D01*
X034724Y020639D01*
D02*
G37*
G36*
X011724Y019649D02*
X011615D01*
X01151Y019621D01*
X011415Y019566D01*
X011338Y019489D01*
X011283Y019395D01*
X011255Y019289D01*
Y01918D01*
X011283Y019075D01*
X011338Y018981D01*
X011415Y018903D01*
X01151Y018849D01*
X011615Y018821D01*
X011724D01*
X011829Y018849D01*
X011924Y018903D01*
X012001Y018981D01*
X012055Y019075D01*
X012084Y01918D01*
Y019289D01*
X012055Y019395D01*
X012001Y019489D01*
X011924Y019566D01*
X011829Y019621D01*
X011724Y019649D01*
D02*
G37*
G36*
X010724D02*
X010615D01*
X01051Y019621D01*
X010415Y019566D01*
X010338Y019489D01*
X010283Y019395D01*
X010255Y019289D01*
Y01918D01*
X010283Y019075D01*
X010338Y018981D01*
X010415Y018903D01*
X01051Y018849D01*
X010615Y018821D01*
X010724D01*
X010829Y018849D01*
X010924Y018903D01*
X011001Y018981D01*
X011055Y019075D01*
X011084Y01918D01*
Y019289D01*
X011055Y019395D01*
X011001Y019489D01*
X010924Y019566D01*
X010829Y019621D01*
X010724Y019649D01*
D02*
G37*
G36*
X035724Y019639D02*
X035615D01*
X03551Y019611D01*
X035415Y019556D01*
X035338Y019479D01*
X035283Y019385D01*
X035255Y01928D01*
Y019171D01*
X035283Y019065D01*
X035338Y018971D01*
X035415Y018894D01*
X03551Y018839D01*
X035615Y018811D01*
X035724D01*
X035829Y018839D01*
X035924Y018894D01*
X036001Y018971D01*
X036055Y019065D01*
X036084Y019171D01*
Y01928D01*
X036055Y019385D01*
X036001Y019479D01*
X035924Y019556D01*
X035829Y019611D01*
X035724Y019639D01*
D02*
G37*
G36*
X034724D02*
X034615D01*
X03451Y019611D01*
X034415Y019556D01*
X034338Y019479D01*
X034283Y019385D01*
X034255Y01928D01*
Y019171D01*
X034283Y019065D01*
X034338Y018971D01*
X034415Y018894D01*
X03451Y018839D01*
X034615Y018811D01*
X034724D01*
X034829Y018839D01*
X034924Y018894D01*
X035001Y018971D01*
X035055Y019065D01*
X035084Y019171D01*
Y01928D01*
X035055Y019385D01*
X035001Y019479D01*
X034924Y019556D01*
X034829Y019611D01*
X034724Y019639D01*
D02*
G37*
G36*
X011724Y018649D02*
X011615D01*
X01151Y018621D01*
X011415Y018566D01*
X011338Y018489D01*
X011283Y018395D01*
X011255Y018289D01*
Y01818D01*
X011283Y018075D01*
X011338Y017981D01*
X011415Y017903D01*
X01151Y017849D01*
X011615Y017821D01*
X011724D01*
X011829Y017849D01*
X011924Y017903D01*
X012001Y017981D01*
X012055Y018075D01*
X012084Y01818D01*
Y018289D01*
X012055Y018395D01*
X012001Y018489D01*
X011924Y018566D01*
X011829Y018621D01*
X011724Y018649D01*
D02*
G37*
G36*
X010724D02*
X010615D01*
X01051Y018621D01*
X010415Y018566D01*
X010338Y018489D01*
X010283Y018395D01*
X010255Y018289D01*
Y01818D01*
X010283Y018075D01*
X010338Y017981D01*
X010415Y017903D01*
X01051Y017849D01*
X010615Y017821D01*
X010724D01*
X010829Y017849D01*
X010924Y017903D01*
X011001Y017981D01*
X011055Y018075D01*
X011084Y01818D01*
Y018289D01*
X011055Y018395D01*
X011001Y018489D01*
X010924Y018566D01*
X010829Y018621D01*
X010724Y018649D01*
D02*
G37*
G36*
X035724Y018639D02*
X035615D01*
X03551Y018611D01*
X035415Y018556D01*
X035338Y018479D01*
X035283Y018385D01*
X035255Y01828D01*
Y018171D01*
X035283Y018065D01*
X035338Y017971D01*
X035415Y017894D01*
X03551Y017839D01*
X035615Y017811D01*
X035724D01*
X035829Y017839D01*
X035924Y017894D01*
X036001Y017971D01*
X036055Y018065D01*
X036084Y018171D01*
Y01828D01*
X036055Y018385D01*
X036001Y018479D01*
X035924Y018556D01*
X035829Y018611D01*
X035724Y018639D01*
D02*
G37*
G36*
X034724D02*
X034615D01*
X03451Y018611D01*
X034415Y018556D01*
X034338Y018479D01*
X034283Y018385D01*
X034255Y01828D01*
Y018171D01*
X034283Y018065D01*
X034338Y017971D01*
X034415Y017894D01*
X03451Y017839D01*
X034615Y017811D01*
X034724D01*
X034829Y017839D01*
X034924Y017894D01*
X035001Y017971D01*
X035055Y018065D01*
X035084Y018171D01*
Y01828D01*
X035055Y018385D01*
X035001Y018479D01*
X034924Y018556D01*
X034829Y018611D01*
X034724Y018639D01*
D02*
G37*
G36*
X011724Y017649D02*
X011615D01*
X01151Y017621D01*
X011415Y017566D01*
X011338Y017489D01*
X011283Y017395D01*
X011255Y017289D01*
Y01718D01*
X011283Y017075D01*
X011338Y016981D01*
X011415Y016904D01*
X01151Y016849D01*
X011615Y016821D01*
X011724D01*
X011829Y016849D01*
X011924Y016904D01*
X012001Y016981D01*
X012055Y017075D01*
X012084Y01718D01*
Y017289D01*
X012055Y017395D01*
X012001Y017489D01*
X011924Y017566D01*
X011829Y017621D01*
X011724Y017649D01*
D02*
G37*
G36*
X010724D02*
X010615D01*
X01051Y017621D01*
X010415Y017566D01*
X010338Y017489D01*
X010283Y017395D01*
X010255Y017289D01*
Y01718D01*
X010283Y017075D01*
X010338Y016981D01*
X010415Y016904D01*
X01051Y016849D01*
X010615Y016821D01*
X010724D01*
X010829Y016849D01*
X010924Y016904D01*
X011001Y016981D01*
X011055Y017075D01*
X011084Y01718D01*
Y017289D01*
X011055Y017395D01*
X011001Y017489D01*
X010924Y017566D01*
X010829Y017621D01*
X010724Y017649D01*
D02*
G37*
G36*
X035724Y017639D02*
X035615D01*
X03551Y017611D01*
X035415Y017557D01*
X035338Y017479D01*
X035283Y017385D01*
X035255Y01728D01*
Y017171D01*
X035283Y017065D01*
X035338Y016971D01*
X035415Y016894D01*
X03551Y016839D01*
X035615Y016811D01*
X035724D01*
X035829Y016839D01*
X035924Y016894D01*
X036001Y016971D01*
X036055Y017065D01*
X036084Y017171D01*
Y01728D01*
X036055Y017385D01*
X036001Y017479D01*
X035924Y017557D01*
X035829Y017611D01*
X035724Y017639D01*
D02*
G37*
G36*
X034724D02*
X034615D01*
X03451Y017611D01*
X034415Y017557D01*
X034338Y017479D01*
X034283Y017385D01*
X034255Y01728D01*
Y017171D01*
X034283Y017065D01*
X034338Y016971D01*
X034415Y016894D01*
X03451Y016839D01*
X034615Y016811D01*
X034724D01*
X034829Y016839D01*
X034924Y016894D01*
X035001Y016971D01*
X035055Y017065D01*
X035084Y017171D01*
Y01728D01*
X035055Y017385D01*
X035001Y017479D01*
X034924Y017557D01*
X034829Y017611D01*
X034724Y017639D01*
D02*
G37*
G36*
X011724Y016649D02*
X011615D01*
X01151Y016621D01*
X011415Y016566D01*
X011338Y016489D01*
X011283Y016395D01*
X011255Y016289D01*
Y01618D01*
X011283Y016075D01*
X011338Y015981D01*
X011415Y015904D01*
X01151Y015849D01*
X011615Y015821D01*
X011724D01*
X011829Y015849D01*
X011924Y015904D01*
X012001Y015981D01*
X012055Y016075D01*
X012084Y01618D01*
Y016289D01*
X012055Y016395D01*
X012001Y016489D01*
X011924Y016566D01*
X011829Y016621D01*
X011724Y016649D01*
D02*
G37*
G36*
X010724D02*
X010615D01*
X01051Y016621D01*
X010415Y016566D01*
X010338Y016489D01*
X010283Y016395D01*
X010255Y016289D01*
Y01618D01*
X010283Y016075D01*
X010338Y015981D01*
X010415Y015904D01*
X01051Y015849D01*
X010615Y015821D01*
X010724D01*
X010829Y015849D01*
X010924Y015904D01*
X011001Y015981D01*
X011055Y016075D01*
X011084Y01618D01*
Y016289D01*
X011055Y016395D01*
X011001Y016489D01*
X010924Y016566D01*
X010829Y016621D01*
X010724Y016649D01*
D02*
G37*
G36*
X035724Y016639D02*
X035615D01*
X03551Y016611D01*
X035415Y016557D01*
X035338Y016479D01*
X035283Y016385D01*
X035255Y01628D01*
Y016171D01*
X035283Y016065D01*
X035338Y015971D01*
X035415Y015894D01*
X03551Y015839D01*
X035615Y015811D01*
X035724D01*
X035829Y015839D01*
X035924Y015894D01*
X036001Y015971D01*
X036055Y016065D01*
X036084Y016171D01*
Y01628D01*
X036055Y016385D01*
X036001Y016479D01*
X035924Y016557D01*
X035829Y016611D01*
X035724Y016639D01*
D02*
G37*
G36*
X034724D02*
X034615D01*
X03451Y016611D01*
X034415Y016557D01*
X034338Y016479D01*
X034283Y016385D01*
X034255Y01628D01*
Y016171D01*
X034283Y016065D01*
X034338Y015971D01*
X034415Y015894D01*
X03451Y015839D01*
X034615Y015811D01*
X034724D01*
X034829Y015839D01*
X034924Y015894D01*
X035001Y015971D01*
X035055Y016065D01*
X035084Y016171D01*
Y01628D01*
X035055Y016385D01*
X035001Y016479D01*
X034924Y016557D01*
X034829Y016611D01*
X034724Y016639D01*
D02*
G37*
G36*
X011724Y015649D02*
X011615D01*
X01151Y015621D01*
X011415Y015566D01*
X011338Y015489D01*
X011283Y015395D01*
X011255Y015289D01*
Y01518D01*
X011283Y015075D01*
X011338Y014981D01*
X011415Y014904D01*
X01151Y014849D01*
X011615Y014821D01*
X011724D01*
X011829Y014849D01*
X011924Y014904D01*
X012001Y014981D01*
X012055Y015075D01*
X012084Y01518D01*
Y015289D01*
X012055Y015395D01*
X012001Y015489D01*
X011924Y015566D01*
X011829Y015621D01*
X011724Y015649D01*
D02*
G37*
G36*
X010724D02*
X010615D01*
X01051Y015621D01*
X010415Y015566D01*
X010338Y015489D01*
X010283Y015395D01*
X010255Y015289D01*
Y01518D01*
X010283Y015075D01*
X010338Y014981D01*
X010415Y014904D01*
X01051Y014849D01*
X010615Y014821D01*
X010724D01*
X010829Y014849D01*
X010924Y014904D01*
X011001Y014981D01*
X011055Y015075D01*
X011084Y01518D01*
Y015289D01*
X011055Y015395D01*
X011001Y015489D01*
X010924Y015566D01*
X010829Y015621D01*
X010724Y015649D01*
D02*
G37*
G36*
X035724Y015639D02*
X035615D01*
X03551Y015611D01*
X035415Y015556D01*
X035338Y015479D01*
X035283Y015385D01*
X035255Y01528D01*
Y015171D01*
X035283Y015065D01*
X035338Y014971D01*
X035415Y014894D01*
X03551Y014839D01*
X035615Y014811D01*
X035724D01*
X035829Y014839D01*
X035924Y014894D01*
X036001Y014971D01*
X036055Y015065D01*
X036084Y015171D01*
Y01528D01*
X036055Y015385D01*
X036001Y015479D01*
X035924Y015556D01*
X035829Y015611D01*
X035724Y015639D01*
D02*
G37*
G36*
X034724D02*
X034615D01*
X03451Y015611D01*
X034415Y015556D01*
X034338Y015479D01*
X034283Y015385D01*
X034255Y01528D01*
Y015171D01*
X034283Y015065D01*
X034338Y014971D01*
X034415Y014894D01*
X03451Y014839D01*
X034615Y014811D01*
X034724D01*
X034829Y014839D01*
X034924Y014894D01*
X035001Y014971D01*
X035055Y015065D01*
X035084Y015171D01*
Y01528D01*
X035055Y015385D01*
X035001Y015479D01*
X034924Y015556D01*
X034829Y015611D01*
X034724Y015639D01*
D02*
G37*
%LPD*%
G36*
X019793Y032644D02*
X019873Y032598D01*
X019905Y032589D01*
Y032393D01*
X019913Y032354D01*
X019935Y032321D01*
X020581Y031675D01*
X020614Y031653D01*
X020653Y031646D01*
X031452D01*
X031466Y031595D01*
X031415Y031566D01*
X031338Y031489D01*
X031283Y031395D01*
X031255Y031289D01*
Y03118D01*
X031283Y031075D01*
X031338Y030981D01*
X031415Y030903D01*
X031428Y030896D01*
X031414Y030846D01*
X021076D01*
X01971Y032212D01*
Y032656D01*
X01976Y032677D01*
X019793Y032644D01*
D02*
G37*
D15*
X014735Y037196D02*
X019007Y032923D01*
X013327Y037196D02*
X014735D01*
X012802Y037722D02*
X013327Y037196D01*
X013213Y042158D02*
X013593D01*
X012802Y041747D02*
X013213Y042158D01*
X013593D02*
X013669Y042235D01*
X012802Y037722D02*
Y041747D01*
D16*
X014669Y041235D02*
X019784D01*
X014669Y042235D02*
X019457D01*
X019784Y041235D02*
X026096Y034922D01*
X019457Y042235D02*
X027007Y034684D01*
X021034Y030744D02*
X032205D01*
X019608Y03217D02*
X021034Y030744D01*
X032205D02*
X032669Y031209D01*
X032182Y031747D02*
X032669Y032235D01*
X020007Y032393D02*
X020653Y031747D01*
X032182D01*
X020007Y032393D02*
Y032923D01*
X032669Y031209D02*
Y031235D01*
X019608Y03217D02*
Y033524D01*
X020007Y033923D01*
X026096Y034922D02*
X026515Y034503D01*
Y033416D02*
X027007Y032923D01*
X026515Y033416D02*
Y034503D01*
X026096Y034922D02*
X026096D01*
X027007Y033923D02*
Y034684D01*
D17*
X035669Y049225D02*
D03*
X011669Y049235D02*
D03*
X032669Y038235D02*
D03*
X014669Y036235D02*
D03*
Y045235D02*
D03*
X032669Y048835D02*
D03*
D18*
X035669Y048225D02*
D03*
Y047225D02*
D03*
Y046225D02*
D03*
X034669Y047225D02*
D03*
Y048225D02*
D03*
Y049225D02*
D03*
Y046225D02*
D03*
Y043225D02*
D03*
Y045225D02*
D03*
Y044225D02*
D03*
X035669Y043225D02*
D03*
Y044225D02*
D03*
Y045225D02*
D03*
Y040225D02*
D03*
Y039225D02*
D03*
Y038225D02*
D03*
X034669Y039225D02*
D03*
Y040225D02*
D03*
Y038225D02*
D03*
Y041225D02*
D03*
Y042225D02*
D03*
X035669Y041225D02*
D03*
Y042225D02*
D03*
Y032225D02*
D03*
Y031225D02*
D03*
X034669Y032225D02*
D03*
Y031225D02*
D03*
Y030225D02*
D03*
Y029225D02*
D03*
X035669D02*
D03*
Y030225D02*
D03*
Y035225D02*
D03*
Y034225D02*
D03*
Y033225D02*
D03*
X034669Y034225D02*
D03*
Y035225D02*
D03*
Y033225D02*
D03*
Y036225D02*
D03*
Y037225D02*
D03*
X035669Y036225D02*
D03*
Y037225D02*
D03*
Y028225D02*
D03*
X034669D02*
D03*
X035669Y016225D02*
D03*
Y015225D02*
D03*
X034669Y016225D02*
D03*
Y015225D02*
D03*
X035669Y021225D02*
D03*
Y020225D02*
D03*
X034669Y021225D02*
D03*
Y020225D02*
D03*
Y017225D02*
D03*
Y019225D02*
D03*
Y018225D02*
D03*
X035669Y017225D02*
D03*
Y018225D02*
D03*
Y019225D02*
D03*
Y024225D02*
D03*
Y023225D02*
D03*
Y022225D02*
D03*
X034669Y023225D02*
D03*
Y024225D02*
D03*
Y022225D02*
D03*
Y025225D02*
D03*
Y027225D02*
D03*
Y026225D02*
D03*
X035669Y025225D02*
D03*
Y026225D02*
D03*
Y027225D02*
D03*
X011669Y048235D02*
D03*
Y047235D02*
D03*
Y046235D02*
D03*
X010669Y047235D02*
D03*
Y048235D02*
D03*
Y049235D02*
D03*
Y046235D02*
D03*
Y043235D02*
D03*
Y045235D02*
D03*
Y044235D02*
D03*
X011669Y043235D02*
D03*
Y044235D02*
D03*
Y045235D02*
D03*
Y040235D02*
D03*
Y039235D02*
D03*
Y038235D02*
D03*
X010669Y039235D02*
D03*
Y040235D02*
D03*
Y038235D02*
D03*
Y041235D02*
D03*
Y042235D02*
D03*
X011669Y041235D02*
D03*
Y042235D02*
D03*
Y032235D02*
D03*
Y031235D02*
D03*
X010669Y032235D02*
D03*
Y031235D02*
D03*
Y030235D02*
D03*
Y029235D02*
D03*
X011669D02*
D03*
Y030235D02*
D03*
Y035235D02*
D03*
Y034235D02*
D03*
Y033235D02*
D03*
X010669Y034235D02*
D03*
Y035235D02*
D03*
Y033235D02*
D03*
Y036235D02*
D03*
Y037235D02*
D03*
X011669Y036235D02*
D03*
Y037235D02*
D03*
Y028235D02*
D03*
X010669D02*
D03*
X011669Y016235D02*
D03*
Y015235D02*
D03*
X010669Y016235D02*
D03*
Y015235D02*
D03*
X011669Y021235D02*
D03*
Y020235D02*
D03*
X010669Y021235D02*
D03*
Y020235D02*
D03*
Y017235D02*
D03*
Y019235D02*
D03*
Y018235D02*
D03*
X011669Y017235D02*
D03*
Y018235D02*
D03*
Y019235D02*
D03*
Y024235D02*
D03*
Y023235D02*
D03*
Y022235D02*
D03*
X010669Y023235D02*
D03*
Y024235D02*
D03*
Y022235D02*
D03*
Y025235D02*
D03*
Y027235D02*
D03*
Y026235D02*
D03*
X011669Y025235D02*
D03*
Y026235D02*
D03*
Y027235D02*
D03*
X031669Y023235D02*
D03*
X032669Y028235D02*
D03*
Y027235D02*
D03*
Y026235D02*
D03*
Y025235D02*
D03*
Y024235D02*
D03*
Y033235D02*
D03*
Y032235D02*
D03*
Y031235D02*
D03*
Y030235D02*
D03*
Y029235D02*
D03*
X031669Y038235D02*
D03*
X032669Y037235D02*
D03*
Y036235D02*
D03*
Y035235D02*
D03*
Y034235D02*
D03*
X031669Y024235D02*
D03*
Y025235D02*
D03*
Y026235D02*
D03*
Y027235D02*
D03*
Y028235D02*
D03*
Y031235D02*
D03*
Y032235D02*
D03*
Y035235D02*
D03*
Y036235D02*
D03*
Y037235D02*
D03*
Y034235D02*
D03*
Y033235D02*
D03*
Y030235D02*
D03*
Y029235D02*
D03*
X032669Y023235D02*
D03*
X031669Y022235D02*
D03*
X032669D02*
D03*
X014669Y026235D02*
D03*
Y025235D02*
D03*
Y024235D02*
D03*
Y023235D02*
D03*
Y022235D02*
D03*
Y031235D02*
D03*
Y030235D02*
D03*
Y029235D02*
D03*
Y028235D02*
D03*
Y027235D02*
D03*
X013669Y036235D02*
D03*
X014669Y035235D02*
D03*
Y034235D02*
D03*
Y033235D02*
D03*
Y032235D02*
D03*
X013669Y022235D02*
D03*
Y023235D02*
D03*
Y024235D02*
D03*
Y025235D02*
D03*
Y026235D02*
D03*
Y029235D02*
D03*
Y030235D02*
D03*
Y033235D02*
D03*
Y034235D02*
D03*
Y035235D02*
D03*
Y032235D02*
D03*
Y031235D02*
D03*
Y028235D02*
D03*
Y027235D02*
D03*
X014669Y040235D02*
D03*
Y039235D02*
D03*
Y038235D02*
D03*
X013669Y045235D02*
D03*
X014669Y044235D02*
D03*
Y043235D02*
D03*
Y042235D02*
D03*
Y041235D02*
D03*
X013669Y038235D02*
D03*
Y039235D02*
D03*
Y042235D02*
D03*
Y043235D02*
D03*
Y044235D02*
D03*
Y041235D02*
D03*
Y040235D02*
D03*
X031669Y039835D02*
D03*
Y040835D02*
D03*
Y043835D02*
D03*
Y044835D02*
D03*
Y047835D02*
D03*
Y046835D02*
D03*
Y045835D02*
D03*
Y042835D02*
D03*
Y041835D02*
D03*
X032669Y044835D02*
D03*
Y045835D02*
D03*
Y046835D02*
D03*
Y047835D02*
D03*
X031669Y048835D02*
D03*
X032669Y039835D02*
D03*
Y040835D02*
D03*
Y041835D02*
D03*
Y042835D02*
D03*
Y043835D02*
D03*
D19*
X019007Y032923D02*
D03*
X020007D02*
D03*
X021007D02*
D03*
X022007D02*
D03*
X023007D02*
D03*
X024007D02*
D03*
X025007D02*
D03*
X026007D02*
D03*
X027007D02*
D03*
Y033923D02*
D03*
X026007D02*
D03*
X025007D02*
D03*
X024007D02*
D03*
X023007D02*
D03*
X022007D02*
D03*
X021007D02*
D03*
X020007D02*
D03*
D20*
X019007D02*
D03*
M02*
